/* XPM */
static char *_0218_44c077c0dd4f5b888522eacc7e6ef9c5f8e1e4d7e672f4a4dad1db2467d36923[] = {
/* columns rows colors chars-per-pixel */
"64 64 85 1 ",
"  c black",
". c #010000",
"X c #020100",
"o c #030100",
"O c #050200",
"+ c #060200",
"@ c #070200",
"# c #070300",
"$ c #080300",
"% c #090300",
"& c #0B0400",
"* c #0B0401",
"= c #0C0401",
"- c #0E0501",
"; c #190901",
": c #1D0B01",
"> c #210C02",
", c #230D02",
"< c #270E02",
"1 c #290F02",
"2 c #2B1002",
"3 c #2C1002",
"4 c #2D1102",
"5 c #2E1102",
"6 c #301203",
"7 c #311303",
"8 c #321303",
"9 c #371503",
"0 c #3A1603",
"q c #3B1603",
"w c #501E04",
"e c #5C2305",
"r c #632505",
"t c #672706",
"y c #692705",
"u c #682706",
"i c #692706",
"p c #6A2706",
"a c #6E2906",
"s c #722B06",
"d c #772D07",
"f c #782D07",
"g c #792E07",
"h c #7A2E07",
"j c #873308",
"k c #8E3508",
"l c #903608",
"z c #913608",
"x c #913708",
"c c #963908",
"v c #973909",
"b c #9B3B09",
"n c #9C3B09",
"m c #9D3B09",
"M c #9E3C09",
"N c #A03C09",
"B c #B3440A",
"V c #BA460B",
"C c #BB470B",
"Z c #BC470B",
"A c #BE480B",
"S c #BF480B",
"D c #BF490B",
"F c #C0490B",
"G c #C1490B",
"H c #C24A0B",
"J c #C34A0B",
"K c #C64B0B",
"L c #C74B0B",
"P c #C54B0C",
"I c #CB4D0B",
"U c #C84C0C",
"Y c #C94C0C",
"T c #CA4D0C",
"R c #CB4D0C",
"E c #CC4D0C",
"W c #CD4D0C",
"Q c #CC4E0C",
"! c #CD4E0C",
"~ c #CE4E0C",
"^ c #CF4E0C",
"/ c #CF4F0C",
"( c #D04E0C",
") c #D04F0C",
"_ c #D14F0C",
/* pixels */
"IUUUUUUUUUUUUUUUUUUUUUUUUURb*  7SYUUUUUUUUUUUUUUUUUUUUUUUURb*   ",
"RUUUUUUUUUUUUUUUUUUUUUUUUURb=  7DYUUUUUUUUUUUUUUUUUUUUUUUURb=   ",
"RUUUUUUUUUUUUUUUUUUUUUUUUURb=  7DYUUUUUUUUUUUUUUUUUUUUUUUURb=   ",
"RUUUUUUUUUUUUUUUUUUUUUUUUURb=  7DYUUUUUUUUUUUUUUUUUUUUUUUURb=   ",
"RUUUUUUUUUUUUUUUUUUUUUUUUURb=  7DYUUUUUUUUUUUUUUUUUUUUUUUURb=   ",
"RUUUUUUUUUUUUUUUUUUUUUUUUURb=  7DYUUUUUUUUUUUUUUUUUUUUUUUURb=   ",
"RUUUUUUUUUUUUUUUUUUUUUUUUURb=  7SYUUUUUUUUUUUUUUUUUUUUUUUURb=   ",
")QQQQQQQQQQQQQQQQQQQQQQQQQ/M=  8J!QQQQQQQQQQQQQQQQQQQQQQQQ/M=   ",
"gdddddddddddddddddddddddddge#  :sfddddddddddddddddddddddddge#   ",
"............................    ............................    ",
"                                                                ",
"                                                                ",
"@@@@@@@@@@@O   X+@@@@@@@@@@@@@@@@@@@@@@@@@@O   X+@@@@@@@@@@@@@@@",
"lkkkkkkkkkla$  ,jkkkkkkkkkkkkkkkkkkkkkkkkkla$  ,jkkkkkkkkkkkkkkz",
"(EEEEEEEEE/M=  8J!EEEEEEEEEEEEEEEEEEEEEEEE/M=  8J!EEEEEEEEEEEE!_",
"RUUUUUUUUURb=  7SYUUUUUUUUUUUUUUUUUUUUUUUURb=  7SYUUUUUUUUUUUUYW",
"RUUUUUUUUURb=  7DYUUUUUUUUUUUUUUUUUUUUUUUURb=  7DYUUUUUUUUUUUUYW",
"RUUUUUUUUURb=  7DYUUUUUUUUUUUUUUUUUUUUUUUURb=  7DYUUUUUUUUUUUUYW",
"RUUUUUUUUURb=  7DYUUUUUUUUUUUUUUUUUUUUUUUURb=  7DYUUUUUUUUUUUUYW",
"RUUUUUUUUURb=  7DYUUUUUUUUUUUUUUUUUUUUUUUURb=  7DYUUUUUUUUUUUUYW",
"RUUUUUUUUURb=  7DYUUUUUUUUUUUUUUUUUUUUUUUURb=  7DYUUUUUUUUUUUUYW",
"RUUUUUUUUURb=  7DYUUUUUUUUUUUUUUUUUUUUUUUURb=  7DYUUUUUUUUUUUUYW",
"RUUUUUUUUURb=  7DYUUUUUUUUUUUUUUUUUUUUUUUURb=  7DYUUUUUUUUUUUUYW",
"RUUUUUUUUURb=  7DYUUUUUUUUUUUUUUUUUUUUUUUURb=  7DYUUUUUUUUUUUUYW",
"RUUUUUUUUURb=  7DYUUUUUUUUUUUUUUUUUUUUUUUURb=  7DYUUUUUUUUUUUUYW",
"EYYYYYYYYYEb=  7FYYYYYYYYYYYYYYYYYYYYYYYYYEb=  7FYYYYYYYYYYYYYY!",
"KHHHHHHHHHPv*  6VJHHHHHHHHHHHHHHHHHHHHHHHHPv*  6VJHHHHHHHHHHHHJL",
"q000000000q4o  -90000000000000000000000000q4o  -900000000000000q",
"                                                                ",
"                                                                ",
"                                                                ",
"222222222222222222222222223>X  &122222222222222222222222223>X   ",
"ACCCCCCCCCCCCCCCCCCCCCCCCCAx*  5BZCCCCCCCCCCCCCCCCCCCCCCCCAx*   ",
"WYYYYYYYYYYYYYYYYYYYYYYYYYQn=  8FTYYYYYYYYYYYYYYYYYYYYYYYYQn=   ",
"RUUUUUUUUUUUUUUUUUUUUUUUUURb=  7DYUUUUUUUUUUUUUUUUUUUUUUUURb=   ",
"RUUUUUUUUUUUUUUUUUUUUUUUUURb=  7DYUUUUUUUUUUUUUUUUUUUUUUUURb=   ",
"RUUUUUUUUUUUUUUUUUUUUUUUUURb=  7DYUUUUUUUUUUUUUUUUUUUUUUUURb=   ",
"RUUUUUUUUUUUUUUUUUUUUUUUUURb=  7DYUUUUUUUUUUUUUUUUUUUUUUUURb=   ",
"RUUUUUUUUUUUUUUUUUUUUUUUUURb=  7DYUUUUUUUUUUUUUUUUUUUUUUUURb=   ",
"RUUUUUUUUUUUUUUUUUUUUUUUUURb=  7DYUUUUUUUUUUUUUUUUUUUUUUUURb=   ",
"RUUUUUUUUUUUUUUUUUUUUUUUUURb=  7DYUUUUUUUUUUUUUUUUUUUUUUUURb=   ",
"RUUUUUUUUUUUUUUUUUUUUUUUUURb=  7DYUUUUUUUUUUUUUUUUUUUUUUUURb=   ",
"RUUUUUUUUUUUUUUUUUUUUUUUUURb=  7DYUUUUUUUUUUUUUUUUUUUUUUUURb=   ",
"RUUUUUUUUUUUUUUUUUUUUUUUUURb=  7DYUUUUUUUUUUUUUUUUUUUUUUUURb=   ",
"^RRRRRRRRRRRRRRRRRRRRRRRRR^M=  8JQRRRRRRRRRRRRRRRRRRRRRRRR^M=   ",
"NmmmmmmmmmmmmmmmmmmmmmmmmmNh%  <cMmmmmmmmmmmmmmmmmmmmmmmmmNh%   ",
"---------------------------&.  o---------------------------&.   ",
"                                                                ",
"                                                                ",
"                                                                ",
"ytttttttttiw+  ;ruttttttttttttttttttttttttiw+  ;ruttttttttttttup",
"^RRRRRRRRR^M=  8JERRRRRRRRRRRRRRRRRRRRRRRR^M=  8JERRRRRRRRRRRRE)",
"RUUUUUUUUURb=  7DYUUUUUUUUUUUUUUUUUUUUUUUURb=  7DYUUUUUUUUUUUUYW",
"RUUUUUUUUURb=  7DYUUUUUUUUUUUUUUUUUUUUUUUURb=  7DYUUUUUUUUUUUUYW",
"RUUUUUUUUURb=  7DYUUUUUUUUUUUUUUUUUUUUUUUURb=  7DYUUUUUUUUUUUUYW",
"RUUUUUUUUURb=  7DYUUUUUUUUUUUUUUUUUUUUUUUURb=  7DYUUUUUUUUUUUUYW",
"RUUUUUUUUURb=  7DYUUUUUUUUUUUUUUUUUUUUUUUURb=  7DYUUUUUUUUUUUUYW",
"RUUUUUUUUURb=  7DYUUUUUUUUUUUUUUUUUUUUUUUURb=  7DYUUUUUUUUUUUUYW",
"RUUUUUUUUURb=  7DYUUUUUUUUUUUUUUUUUUUUUUUURb=  7DYUUUUUUUUUUUUYW",
"RUUUUUUUUURb=  7DYUUUUUUUUUUUUUUUUUUUUUUUURb=  7DYUUUUUUUUUUUUYW",
"RUUUUUUUUURb=  7DYUUUUUUUUUUUUUUUUUUUUUUUURb=  7DYUUUUUUUUUUUUYW",
"RUUUUUUUUURb=  7DYUUUUUUUUUUUUUUUUUUUUUUUURb=  7DYUUUUUUUUUUUUYW",
"RUUUUUUUUURb=  7SYUUUUUUUUUUUUUUUUUUUUUUUURb=  7SYUUUUUUUUUUUUYW",
"!TTTTTTTTT!m=  8GRTTTTTTTTTTTTTTTTTTTTTTTT!m=  8GRTTTTTTTTTTTTR~"
};
