/* XPM */
static char *e03f506e66904596b0a5a7c65ae1cbd3[] = {
/* columns rows colors chars-per-pixel */
"64 64 3 1 ",
"  c black",
". c #B00D0D",
"X c #D50F0F",
/* pixels */
"                                                                ",
"                                                                ",
"                                                                ",
"XXXXXXXXXXXXX    XXXXXXXXXXXXXXXXXXXXXXXXXXXXXXXXXXXX    XXXXXXX",
"XXXXXXXXXXXXX.  XXXXXXXXXXXXXXXXXXXXXXXXXXXXXXXXXXXXX.  XXXXXXXX",
"XXXXXXXXXXXXX.  XXXXXXXXXXXXXXXXXXXXXXXXXXXXXXXXXXXXX.  XXXXXXXX",
"XXXXXXXXXXXX..  XXXXXXXXXXXXXXXXXXXXXXXXXXXXXXXXXXXXX.  XXXXXXXX",
"XXXXXXXXXXXX..  XXXXXXXXXXXXXXXXXXXXXXXXXXXXXXXXXXXX..  XXXXXXXX",
"XXXXXXXXXXXX..  XXXXXXXXXXXXXXXXXXXXXXXXXXXXXXXXXXXX..  XXXXXXXX",
"XXXXXXXXXXXX..  XXXXXXXXXXXXXXXXXXXXXXXXXXXXXXXXXXXX..  XXXXXXXX",
"XXXXXXXXXXXX..  XXXXXXXXXXXXXXXXXXXXXXXXXXXXXXXXXXXX..  XXXXXXXX",
"XXXXXXXXXXXX..  XXXXXXXXXXXXXXXXXXXXXXXXXXXXXXXXXXX...  XXXXXXXX",
"XXXXXXXXXXXX..  XXXXXXXXXXXXXXXXXXXXXXXXXXXXXXXXXXX...  XXXXXXXX",
"XXXXXXXXXXXX..  XXXXXXXXXXXXXXXXXXXXXXXXXXXXXXXXXX....  XXXXXXXX",
"XXXXXXXXXXXX..  XXXXXXXXXXXXXXXXXXXXXXXXXXXXXXXXXX....  XXXXXXXX",
"XXXXXXXXXXXX..  XXXXXXXXXXXXXXXXXXXXXXXXXXXXXXXXX.....  XXXXXXXX",
"XXXXXXXXXXX...  XXXXXXXXXXXXXXXXXXXXXXXXXXXXXXXX......  XXXXXXXX",
"XXXXXXXXXX....  XXXXXXXXXXXXXXXXXXXXXXXXXXXXXXX.......  XXXXXXXX",
"XXXXXXXXXX....  XXXXXXXXXXXXXXXXXXXXXXXXXXXXXX........  XXXXXXXX",
"XXXXXXXX......  XXXXXXXXXXXXXXXXXXXXXXXXX.............  XXXXXXXX",
"XXXX..........  XXXXXXXXXXXXXXXXX.....................  XXXXXXXX",
"XXX..........    XXXXXXXXXXXX........................    XXXXXXX",
"                                                                ",
"                                                                ",
"XXX    XXXXXXXXXXXXXXXXXXXXXXXXXXXX    XXXXXXXXXXXXXXXXXXXXXXXXX",
"XXXX  XXXXXXXXXXXXXXXXXXXXXXXXXXXXXX  XXXXXXXXXXXXXXXXXXXXXXXXXX",
"XXXX  XXXXXXXXXXXXXXXXXXXXXXXXXXXXX.  XXXXXXXXXXXXXXXXXXXXXXXXXX",
"XXXX  XXXXXXXXXXXXXXXXXXXXXXXXXXXXX.  XXXXXXXXXXXXXXXXXXXXXXXXXX",
"XXXX  XXXXXXXXXXXXXXXXXXXXXXXXXXXXX.  XXXXXXXXXXXXXXXXXXXXXXXXX.",
"XXXX  XXXXXXXXXXXXXXXXXXXXXXXXXXXXX.  XXXXXXXXXXXXXXXXXXXXXXXXX.",
"XXXX  XXXXXXXXXXXXXXXXXXXXXXXXXXXXX.  XXXXXXXXXXXXXXXXXXXXXXXXX.",
"XXXX  XXXXXXXXXXXXXXXXXXXXXXXXXXXX..  XXXXXXXXXXXXXXXXXXXXXXXXX.",
"XXXX  XXXXXXXXXXXXXXXXXXXXXXXXXXXX..  XXXXXXXXXXXXXXXXXXXXXXXXX.",
"XXXX  XXXXXXXXXXXXXXXXXXXXXXXXXXXX..  XXXXXXXXXXXXXXXXXXXXXXXX..",
"XXXX  XXXXXXXXXXXXXXXXXXXXXXXXXX....  XXXXXXXXXXXXXXXXXXXXXXXX..",
"XXXX  XXXXXXXXXXXXXXXXXXXXXXXXX.....  XXXXXXXXXXXXXXXXXXXXXXXX..",
"XXXX  XXXXXXXXXXXXXXXXXXXXXXXXX.....  XXXXXXXXXXXXXXXXXXXXXXXX..",
"XXXX  XXXXXXXXXXXXXXXXXXXXXXXX......  XXXXXXXXXXXXXXXXXXXXXXX...",
"XXXX  XXXXXXXXXXXXXXXXXXXXXXX.......  XXXXXXXXXXXXXXXXXXXXXXX...",
"XXXX  XXXXXXXXXXXXXXXXXXXXX.........  XXXXXXXXXXXXXXXXXXXXX.....",
"XXXX  XXXXXXXXXXXXXXXXXX............  XXXXXXXXXXXXXXXXXX........",
"XXX    XXXXXXXXXXXXX...............    XXXXXXXXXXX..............",
"                                                                ",
"                                                                ",
"XXXXXXXXXXXXXXXXXXXXXXXXX    XXXXXXXXXXXXXXXXXXXXXXXXXXXXX    XX",
"XXXXXXXXXXXXXXXXXXXXXXXXXX  XXXXXXXXXXXXXXXXXXXXXXXXXXXXXXX  XXX",
"XXXXXXXXXXXXXXXXXXXXXXXXXX  XXXXXXXXXXXXXXXXXXXXXXXXXXXXXXX  XXX",
"XXXXXXXXXXXXXXXXXXXXXXXXXX  XXXXXXXXXXXXXXXXXXXXXXXXXXXXXXX  XXX",
"XXXXXXXXXXXXXXXXXXXXXXXXX.  XXXXXXXXXXXXXXXXXXXXXXXXXXXXXX.  XXX",
"XXXXXXXXXXXXXXXXXXXXXXXXX.  XXXXXXXXXXXXXXXXXXXXXXXXXXXXXX.  XXX",
"XXXXXXXXXXXXXXXXXXXXXXXXX.  XXXXXXXXXXXXXXXXXXXXXXXXXXXXXX.  XXX",
"XXXXXXXXXXXXXXXXXXXXXXXXX.  XXXXXXXXXXXXXXXXXXXXXXXXXXXXXX.  XXX",
"XXXXXXXXXXXXXXXXXXXXXXXX..  XXXXXXXXXXXXXXXXXXXXXXXXXXXXX..  XXX",
"XXXXXXXXXXXXXXXXXXXXXXXX..  XXXXXXXXXXXXXXXXXXXXXXXXXXXXX..  XXX",
"XXXXXXXXXXXXXXXXXXXXXXXX..  XXXXXXXXXXXXXXXXXXXXXXXXXXXX...  XXX",
"XXXXXXXXXXXXXXXXXXXXXXX...  XXXXXXXXXXXXXXXXXXXXXXXXXXXX...  XXX",
"XXXXXXXXXXXXXXXXXXXXXX....  XXXXXXXXXXXXXXXXXXXXXXXXXXX....  XXX",
"XXXXXXXXXXXXXXXXXXXXXX....  XXXXXXXXXXXXXXXXXXXXXXXXXX.....  XXX",
"XXXXXXXXXXXXXXXXXXXX......  XXXXXXXXXXXXXXXXXXXXXXXXXX.....  XXX",
"XXXXXXXXXXXXXXXXX.........  XXXXXXXXXXXXXXXXXXXXXXXX.......  XXX",
"XXXXXXXXXXXXXXX...........  XXXXXXXXXXXXXXXXXXXXX..........  XXX",
"XXXXXX...................    XXXXXXXXXXXX.................    XX",
"                                                                ",
"                                                                "
};
