/* XPM */
static char *_697872cdbf84326969203a351d06e5b[] = {
/* columns rows colors chars-per-pixel */
"64 64 3 1 ",
"  c black",
". c #8AC9FF",
"X c gray100",
/* pixels */
"................................................................",
"................................................................",
"................................................................",
"................................................................",
"................................................................",
"................................................................",
"................................................................",
"................................................................",
"................................................................",
"................................................................",
"................................................................",
"................................................................",
"................................................................",
"................................................................",
"................................................................",
"................................................................",
"................................................................",
"........................................   .....   .............",
"....................................... XXX ... XXX ............",
"...................................... XXXXX . XXXXX ...........",
"...................................... XXXXXX XXXXXX ...........",
"....................................  XXXXXXXXXXXXXXX  .........",
"................................... XXXXXXXXXXXXXXXXXXX ........",
".................................. XXXXXXXXXXXXXXXX...XX .......",
".................................. XXXXXXXXXXXXXX......X .......",
".................................. XXXXXXXXXXXX.......XX .......",
".................................. XXX...............XX ........",
"................................... XXXXXXXXXXXXXXXXXX .........",
"....................................                  ..........",
"................................................................",
"................................................................",
"................................................................",
"................................................................",
"................................................................",
"................................................................",
"................................................................",
"................................................................",
"................................................................",
"................................................................",
".................      .........................................",
"................ XXXXXX ........................................",
"............... XXXXXXXX .......................................",
"............... XXXXXXXX .......................................",
".............  XXXXXXXXXX  .....................................",
"............ XXXXXXXXXXXXXX ....................................",
"........... XXXXXXXXXXX...XX ...................................",
"........... XXXXXXXXXX.....X ...................................",
"........... XXXXXXXX......XX ...................................",
"........... XX..........XXX ....................................",
"............ XXXXXXXXXXXX  .....................................",
".............            .......................................",
"................................................................",
"................................................................",
"................................................................",
"................................................................",
"................................................................",
"................................................................",
"................................................................",
"................................................................",
"................................................................",
"................................................................",
"................................................................",
"................................................................",
"................................................................"
};
