/* XPM */
static char *_187_c2293d9ac54330c9ad488b515e843d41fca489716d5f638139a61c4b8fa91369[] = {
/* columns rows colors chars-per-pixel */
"64 64 155 2 ",
"   c #000000",
".  c #0A0401",
"X  c #0D0A09",
"o  c #130701",
"O  c #150801",
"+  c #1E0B02",
"@  c #1C1514",
"#  c #260E03",
"$  c #2A0F02",
"%  c #2E1102",
"&  c #22140F",
"*  c #341404",
"=  c #3D1704",
"-  c #341708",
";  c #201817",
":  c #341D14",
">  c #2C211F",
",  c #392017",
"<  c #33211B",
"1  c #39231A",
"2  c #342724",
"3  c #372A28",
"4  c #3E2E2B",
"5  c #441A04",
"6  c #4E1E05",
"7  c #542005",
"8  c #5C2305",
"9  c #5A250A",
"0  c #492A1C",
"q  c #4C2513",
"w  c #5E2D16",
"e  c #642606",
"r  c #682706",
"t  c #6F2A07",
"y  c #6C2C0A",
"u  c #792E07",
"i  c #752C07",
"p  c #7E3108",
"a  c #743516",
"s  c #442E27",
"d  c #4A2F24",
"f  c #5A372B",
"g  c #543D37",
"h  c #513C39",
"j  c #663B29",
"k  c #6A3B27",
"l  c #68453A",
"z  c #644A46",
"x  c #674D48",
"c  c #6B4F4A",
"v  c #6B504B",
"b  c #74534B",
"n  c #7D5446",
"m  c #735650",
"M  c #795B54",
"N  c #873307",
"B  c #893407",
"V  c #81330B",
"C  c #893408",
"Z  c #923709",
"A  c #953909",
"S  c #9A3A09",
"D  c #863710",
"F  c #8B3A12",
"G  c #933E13",
"H  c #A43E09",
"J  c #A83E09",
"K  c #A7400B",
"L  c #AB410A",
"P  c #B2440B",
"I  c #BA470B",
"U  c #BE490C",
"Y  c #A74718",
"T  c #AB4A1A",
"R  c #934926",
"E  c #B35020",
"W  c #AB5630",
"Q  c #C64B0B",
"!  c #C84C0C",
"~  c #C94F10",
"^  c #CA5113",
"/  c #CD561B",
"(  c #CE581E",
")  c #D1591D",
"_  c #CF5B23",
"`  c #D05D25",
"'  c #D2612C",
"]  c #D46632",
"[  c #D86732",
"{  c #D66937",
"}  c #D46B3B",
"|  c #83594D",
" . c #995A41",
".. c #835C52",
"X. c #9F6D5D",
"o. c #BC6843",
"O. c #B76A4B",
"+. c #BA7154",
"@. c #896761",
"#. c #8E6A63",
"$. c #946E67",
"%. c #946F68",
"&. c #A47263",
"*. c #A87566",
"=. c #DC764A",
"-. c #DE7A4F",
";. c #C37354",
":. c #CF7855",
">. c #D17752",
",. c #DE7B51",
"<. c #D07B58",
"1. c #E17F56",
"2. c #AE8279",
"3. c #B08177",
"4. c #B3857C",
"5. c #E08057",
"6. c #E1835D",
"7. c #CE876E",
"8. c #D78668",
"9. c #D28265",
"0. c #D5907B",
"q. c #E78A64",
"w. c #E68C6A",
"e. c #E88D6A",
"r. c #EA977B",
"t. c #EB987B",
"y. c #B98981",
"u. c #CB9183",
"i. c #CB978D",
"p. c #CC988F",
"a. c #D79480",
"s. c #CC9990",
"d. c #D49E94",
"f. c #EC9D84",
"g. c #D6A095",
"h. c #DBA195",
"j. c #DAA399",
"k. c #EFA087",
"l. c #F1A48C",
"z. c #E6A594",
"x. c #EBA795",
"c. c #E4AA9F",
"v. c #F0A793",
"b. c #F4AA96",
"n. c #F6AE9B",
"m. c #F6B09F",
"M. c #F9B19E",
"N. c #EEB2A6",
"B. c #F7B2A1",
"V. c #F9B3A2",
"C. c #F2B5A9",
"Z. c #FAB7A9",
"A. c #FBBBAE",
"S. c #FDBDB1",
"D. c #FFC0B4",
/* pixels */
"6.6.6.6.q.6.q.6.6.q.6.6.q.6.6.q.1.q.q.1.q.1.1.q.1.1.q.1.1.q.1.1.q.1.1.q. .&     , O.6.6.6.6.6.6.6.6.6.q.6.6.6.6.6.q.6.6.6.o.y r ",
"B.B.n.6./ / / / / / / / / / / / ^ ^ / / / _ / / _ _ / _ _ ^ _ / _ _ ) ) G #     4 u.V.V.l.} / / / / / / / / ) / / / / / ) G + o ",
"S.S.A.6.! ! Q ! Q Q Q Q ! ! Q Q ! ! ! ! Q ! ! ! ! Q Q Q ! ! ! ! Q Q Q ! N +     4 p.D.D.n.] ! Q ! ! ! ! Q Q Q Q ! Q Q Q Q B .   ",
"S.A.Z.6.! ! ! ! Q Q Q Q ! ! ! Q ! ! ! ! Q Q ! ! ! ! Q Q Q ! ! ! Q Q ! ! C +     4 p.D.S.b.[ ! ! ! ! ! ! ! ! ! ! ! ! ! ! ! C .   ",
"S.A.Z.6.! Q ! ! Q ! ! ! ! ! ! ! ! ! ! ! ! ! ! ! ! ! ! ! ! ! ! ! ! ! ! ^ N +     4 p.D.S.b.[ ! ! ! ! Q ! ! ! ! ! ! ! ! ! Q C .   ",
"S.S.Z.6.~ ! Q ! ! ! ! ! ! ! ! ! ! ! ! ! ! ! ! ! ! Q ! ! ! ! ! ! ! ! ! ! C +     4 p.D.A.b.' ! ! ! ! ! ! ! ! ! ! ! ! ! ! Q B .   ",
"A.A.Z.6.~ ! ! ! ! ! ! ! ! ! Q ! ! ! ! ! ! ! Q ! ! ! ! ! Q ! ! ! ! ! ! ! C +     4 p.D.S.b.[ ! ! ! ! ! ! ! ! ! Q ! ! ! ! ! C .   ",
"S.S.Z.1.~ ! ! ! ! ! ! ! ! ! ! ! ! ! ! ! ! ! ! ! ! ! ! ! ! ! ! ! ! ! ! ! N +     4 p.D.S.b.[ ! ! ! ! ! ! ! ! ! ! ! ! ! ! ! C .   ",
"S.S.Z.6.~ ! ! ! ! ! ! ! ! ! ! ! ! ! ! ! ! ! ! ! ! ! ! Q ! ! ! ! ! ! ! ! N +     4 s.S.S.b.] ! ! ! ! ! ! ! ! ! ! ! ! ! ! Q C .   ",
"S.S.Z.6.~ ! ! ! ! ! ! ! ! ! ! ! ! ! ! ! ! ! ! ! ! ! ! ! ! Q ! ! ! ! ! ! C +     4 s.S.S.b.] ! ! ! ! ! ! ! ! ! Q ! ! ! ! Q N .   ",
"A.S.Z.1.! ! ! ! ! ! ! Q ! ! ! ! ! Q ! ! Q ! ! ! ! ! ! ! ! ! ! ! ! ! ! ~ N +     4 p.D.S.b.[ ! ! ! ! Q ! ! ! ! ! ! ! ! ! ! C .   ",
"A.S.Z.6.~ ! ! ! ! ! ! ! ! ! ! ! ! ! ! ! ! ! ! ! ! ! ! ! ! ! ! ! ! ! ! ~ C +     4 s.D.S.b.[ ! ! Q ! ! ! ! ! ! ! ! ! ! ! ! C .   ",
"S.S.Z.1.! ! ! ! ! ! ! ! ! ! ! ! Q ! ! ! ! ! ! ! ! Q ! ! ! Q ! ! ! ! ! ! S #     s s.S.S.n.] ! ! ! ! ! ! ! ! ! ! ! ! ! ! Q C .   ",
"S.A.A.1.! ! ! ! ! ! Q ! ! ! ! ! ! ! ! ! ! ! ! ! ! ! ! ! ! ! ! ! ! ! ! ! B #     4 s.D.S.b.[ ! ! ! ! ! ! ! ! ! ! ! ! ! ! Q C .   ",
"S.S.Z.1.! ! ! Q ! ! ! ! ! ! ! ! ! ! ! ! ! Q ! ! ! ! ! ! ! ! ! ! ! ! ! ! B +     4 s.S.S.x.W A A A I ! ! ! Q ! ! ! ! ! ! ! C .   ",
"A.A.C.q.! ! ! ! ! ! ! ! ! ! ! ! ! ! ! ! ! ! ! Q ! ! ! ! ! ! ! ! ! ! ! ! B +     4 s.D.S.d.f # # * C Q ! ! ! ! ! ! ! ! ! ! C .   ",
"S.A.Z.,.~ ! ! ! ! ! ! ! ! ! ! ! ! ! ! ! ! ! Q ! ! ! ! ! ! Q Q ! ! ! ! ~ C +     s p.D.S.d.4     . p Q Q ! ! ! ! Q ! Q Q Q C .   ",
"S.S.Z.q.~ ~ ! ! ! ! ! ! ! Q ! ! Q ! ! ! ! ! ! ! ! ! ! ! ! ! ! ! ! ! ! ! N +     4 p.S.D.d.3     . p Q ! ! Q ! ! ! ! Q Q Q C .   ",
"A.S.Z.1.! ! ! ! ! ! ! ! ! ! ! ! ! ! ! ! ! ! ! ! ! ! ! ! ! ! ! ! ! ! ! ! C +     4 p.A.A.d.3     . p I Q Q U Q Q Q Q Q Q Q N . . ",
"S.A.Z.1.~ ! ! ! ! ! ! Q ! ! ! ! ! ! ! ! ! ! ! ! ! Q ! ! ! ! ! ! ! ! ! ! N +     1 +.e.e.+.:     . 5 r t t t t t t t y t t e 8 8 ",
"A.S.A.,.~ ! ! ! ! ! ! ! ! ! ! ! ! ! ! ! ! ! ! ! ! ! ! ! ! Q ! ! ! ! ! ! N +     - Y ( ( T %       . O O O O O O O O O O O 5 L P ",
"S.A.A.q.~ ! ! ! ! ! ! ! ! ! ! ! ! ! Q ! ! ! ! Q ! ! ! ! ! ! ! ! ! ! ! ~ C +     * H ! Q J %                               = Q ! ",
"A.S.A.,.! ! ! ! ! ! ! ! ! ! ! ! ! ! ! ! ! ! ! ! Q ! ! ! ! ! ! ! ! ! ! ~ N +     * H ! Q J %                               = U ! ",
"A.S.A.1.~ ! ! ! ! ! ! ! Q ! ! ! ! ! ! ! ! ! ! ! ! ! ! ! ! ! ! ! ! ! ! ! C +     * T ` ) E 0 ; @ ; ; ; ; ; ; ; ; ; ; ; ; ; q L L ",
"S.A.Z.1.~ Q Q ! ! ! ! ! ! ! ! ! ! ! ! ! Q ! ! ! ! ! ! ! ! ! Q ! ! ! ! ! S +     1 +.e.w.8.&.#.#.#.#.#.#.#.#.#.#.#.#.$.#.#.n 9 7 ",
"A.S.Z.8.~ ~ Q ! ! ! Q ! ! ! Q ! ! ! ! ! ! ! ! ! ! ! Q ! ! ! ! ! ! ! ! ! Z #     4 s.D.S.S.D.S.S.S.S.D.D.S.D.S.D.S.S.S.S.A.2.X   ",
"S.S.Z.1.~ Q Q ! ! ! ! ! ! ! ! ! ! ! ! ! ! ! ! ! ! ! ! ! ! ! ! ! ! ! ! ! C +     s s.D.S.S.S.S.S.A.S.S.A.A.S.A.A.S.S.S.S.A.2.X   ",
"A.S.A.1.~ ! ! ! ! ! ! ! ! ! ! ! ! ! ! ! ! ! ! ! ! ! ! ! ! ! ! ! ! ! ! ! N +     4 p.D.S.S.A.A.A.A.A.A.A.A.A.A.A.A.A.A.A.A.2.X   ",
"S.S.Z.1.~ ! ! ! ! ! ! ! ! Q Q ! ! ! ! ! ! ! ! ! ! ! ! ! ! ! ! Q ! ! ! ^ C +     4 p.D.A.A.b.b.b.b.b.b.b.b.b.b.b.b.b.b.b.x.*.X   ",
"S.A.A.,.~ ! ! ! ! ! ! ! ! ! ! ! ! ! ! ! ! ! ! ! ! ! ! ! ! Q ! ! ! ! ! ! N +     4 p.D.A.M.1.{ { { { { { { { { { { { { { ] R .   ",
"A.A.Z.q.~ ! ! ! Q ! ! ! ! ! ! ! ! ! ! ! ! ! ! ! ! ! ! ! ! ! ! ! ! ! ! ! C +     4 p.D.D.b.[ ! ! ~ ~ ~ ! ~ ~ ! ! ! ~ ! ~ ~ C .   ",
"S.S.Z.1.~ ! ! ! ! ! ! ! ! ! ! ! ! ! ! ! ! ! ! ! Q ! ! ! ! ! ! ! ! ! ! ! N +     4 i.D.A.b.] ! ! ! ! ! ! ! ! ! ! ! ! ! ! Q C .   ",
"A.A.C.6.! ! ! ! ! ! ! ! ! ! ! ! ! ! ! ! ! ! ! ! ! Q ! ! ! ! ! ! ! ! ! ! Z #     s s.D.S.b.] ! ! ! ! ! ! ! ! ! ! ! ! ! ! Q B .   ",
"A.A.Z.6.~ ! ! ! ! ! ! ! ! ! ! ! Q ! ! ! ! ! ! ! ! ! ! ! ! ! ! ! ! ! ! ~ B #     4 p.D.S.b.] ! ! ! ! ! ! ! ! ! ! ! ! ! ! Q N .   ",
"D.A.Z.6.! ! ! ! ! ! ! ! ! ! ! ! ! ! ! ! ! ! ! ! ! ! ! ! Q ! ! ! ! ! ! ! C +     4 p.D.S.b.] ! ! ! ! ! ! ! Q ! ! Q ! ! ! ! C .   ",
"S.A.Z.6.~ ! ! ! ! ! ! Q ! ! ! ! ! ! ! ! ! Q Q ! ! ! ! ! ! ! ! ! ! ! ! ! N +     4 p.D.S.b.] ! ! ! ! ! ! ! ! ! ! ! ! ! ! ! C .   ",
"A.A.Z.6.~ ! ! ! ! ! ! ! ! ! ! Q ! ! ! ! ! ! ! ! ! ! ! ! ! ! ! Q ! ! ! ^ C +     4 s.D.S.b.[ ! ! ! ! ! ! ! ! ! ! ! ! ! ! ! C .   ",
"S.S.Z.6.~ ! ! ! ! Q ! ! ! ! ! ! ! ! ! ! ! ! ! ! ! ! ! Q ! ! ! ! ! ! ! ! N +     4 s.S.S.b.' ! ! ! ! ! ! ! ! ! ! ! ! ! ! Q N .   ",
"A.A.Z.6.~ ! ! ! ! ! ! ! ! ! ! ! ! ! Q ! ! ! ! ! ! ! ! ! ! ! Q ! ! ! ! ! C +     4 p.D.S.b.[ ! ! ! ! ! Q ! ! ! ! ! ! ! ! ! C .   ",
"S.A.Z.6.! ! Q ! ! ! ! ! ! ! ! ! ! ! ! ! ! Q ! ! ! ! ! ! ! ! ! ! ! ! ! ! N +     4 p.D.S.b.] ! ! ! ! ! ! ! ! ! Q ! ! ! ! ! C .   ",
"S.A.Z.6.! ! ! ! ! ! ! ! ! ! ! ! ! ! ! ! ! Q ! ! ! ! ! ! ! ! ! ! ! ! ! ! N +     4 s.S.S.b.[ ! ! ! ! ! ! ! ! ! ! ! ! Q ! Q C .   ",
"D.D.Z.6.~ ! ! ! ! ! ! ! ! ! Q ! ! ! ! ! ! ! ! ! ! ! ! ! ! ! ! ! ! ! ! ~ N +     4 s.D.S.b.[ ! ! Q ! ! ! ! ! ! ! ! ! ! ! Q N .   ",
"j.c.h.;.P L I U ! ! Q ! ! ! ! ! ! ! ! ! ! ! ! ! ! Q ! ! ! ! ! ! Q P I I p : @ @ g u.V.n.f.' ! ! ! ! ! ! ! ! ! ! ! ! ! ! ! C .   ",
"m m b j 8 8 e B Q ! ! ! ! ! ! ! Q ! ! ! ! ! ! ! ! ! ! ! Q ! ! ! S r 8 8 k ..#.@.X.<.1.6.=./ ! ! ! ! ! ! ! Q Q ! ! ! ! ! ! C .   ",
"            . 7 ! ! ! ! ! ! ! ! ! ! ! ! Q ! ! ! Q ! ! ! ! ! ! ! i o     h d.D.S.k.' Q ! ! ! ! ! ! ! ! ! ! ! ! ! ! ! ! ! ! C .   ",
"            . 7 Q ! ! ! ! ! ! ! ! ! ! ! ! ! ! ! ! ! ! ! ! ! ! ! u o     h d.S.S.k.' Q ! ! ! ! ! ! ! ! ! ! ! ! ! ! ! ! ! Q N .   ",
"            . 6 Q Q ! ! ! ! ! ! ! ! ! ! ! ! ! ! ! ! ! ! ! Q ! ! u o     h g.S.D.k.' Q Q ! ! ! ! ! ! Q ! ! ! ! ! ! ! ! ! ! C .   ",
"> > > > > > > w H H K J H H H J Q ! ! Q ! ! ! ! ! ! ! ! ! ! ! ! u o     h d.S.S.k.' Q Q ! ! ! ! ! ! ! ! ! ! ! ! ! ! ! ! ! C .   ",
"y.y.y.y.y.y.2.M * * = * * = * 6 K ! ! ! ! ! ! ! ! ! ! ! ! ! ! ! u o     h d.D.S.k.' Q ! ! ! ! ! ! ! ! ! Q ! ! ! ! ! ! ! Q B .   ",
"S.A.A.S.A.A.C.%.  .           # H ! ! ! ! ! ! ! Q ! ! ! ! ! ! ! u o     h j.S.S.k.` ! ! ! ! ! ! ! ! ! Q ! ! ! ! ! ! ! ! Q B .   ",
"A.S.S.S.S.S.C.%.              # H ! ! ! Q ! ! ! Q ! ! ! ! ! ! ! u o     h d.S.S.k.' Q ! Q ! ! ! ! ! ! ! ! ! ! ! ! Q ! ! ! C .   ",
"S.S.A.S.S.S.C.%.              + S ! ! ! ! ! ! ! ! ! ! ! ! ! ! ! u O     h d.S.S.k.' Q ! ! ! ! ! ! ! ! ! ! ! ! ! ! ! ! ! ! C .   ",
"S.A.A.n.k.l.f.&.4 3 4 3 4 4 3 d D S S S A S S S A S S A S S S S a s 4 3 b 0.l.l.e.` Q ! ! ! ! Q ! ! ! ! Q ! ! ! ! ! ! ! ! C .   ",
"S.S.Z.w.' ' ' :.s.i.i.i.p.p.p.2.0 # # # # # # # # # # % # # # # l y.s.s.8.{ ' ' ` ~ ! ! ! ! ! ! Q ! ! ! ! ! Q ! ! ! ! ! Q N .   ",
"A.A.Z.6.^ ! ^ ,.A.A.A.A.S.A.A.d.2         . .                   z c.S.S.t.` ! ! ! ! ! ! ! ! Q ! ! ! ! ! ! ! ! ! ! ! ! ! ! C .   ",
"S.S.Z.6.~ ! ^ ,.A.S.S.A.S.A.S.d.2                               z c.S.S.t.` Q ! Q ! ! ! ! ! ! ! ! ! ! ! ! ! ! ! ! ! ! ! ! C .   ",
"S.A.Z.6.~ ! ^ ,.S.S.S.S.S.A.S.d.3                               z c.S.S.f._ ! ! ! ! ! ! ! ! ! ! ! ! ! ! Q ! ! ! ! ! ! ! Q C .   ",
"S.A.Z.6.~ ! ! { w.w.w.w.w.w.e.9...v c c c c v v c c v z 2       z c.D.S.r._ ! ! ! Q ! ! ! ! ! ! ! ! ! ! ! ! ! ! ! ! ! Q Q N .   ",
"A.S.Z.6.! ! ! ^ _ _ _ _ _ _ _ ] 0.j.j.j.j.j.j.g.j.j.j.s.x .     z c.S.S.t._ Q ! ! ! ! ! ! ! ! ! Q ! ! ! ! ! ! ! ! ! ! ! ! C .   ",
"A.S.Z.6.~ ! ! ! Q Q Q Q Q Q Q ` b.D.S.S.S.S.D.S.S.S.D.C.M       z c.S.D.t._ Q ! ! ! ! ! Q ! ! ! ! ! ! ! ! ! ! ! ! ! ! ! ! C .   ",
"S.S.Z.6.~ ! ! ! ! ! ! ! Q ! Q _ v.S.S.S.S.S.S.S.S.S.S.N.M .     z c.A.D.t.' ! ! ! Q ! ! ! ! ! ! ! ! ! ! ! ! Q ! ! ! ! ! ! C .   ",
"S.A.Z.6.! ! ! ! ! ! ! ! ! ! ! _ f.B.V.n.m.m.B.B.B.B.V.z.m       z c.D.S.t._ Q ! ! ! ! ! ! ! ! ! ! ! ! ! ! ! ! ! ! U I P L p .   ",
"S.A.Z.1.~ ! ! ! ! ! Q ! ! ! ! / =.,.6.,.1.6.6.,.1.6.6.>.j .     z c.A.D.t.` Q ! ! ! ! ! ! Q Q ! ! ! ! Q ! ! ! ! Q S e 8 8 5 .   ",
"S.S.Z.6.! ! ! ! Q ! ! ! ! ! ! ! ~ ~ ~ ~ ! ~ ~ ~ ! ~ ! I 8 .     z c.D.S.t._ Q ! ! ! ! ! ! ! ! ! ! ! ! ! ! ! ! ! ! i . .         "
};
