/* XPM */
static char *_6570_cbe2292d4aceb9b26a5743e8d0d40872278f525e3e209dbc32589106ee00b844[] = {
/* columns rows colors chars-per-pixel */
"64 64 64 1 ",
"  c #010101",
". c #150602",
"X c #180702",
"o c #150E03",
"O c #1C0803",
"+ c #171003",
"@ c #1D1404",
"# c #240B03",
"$ c #2D0D04",
"% c #221704",
"& c #2C1605",
"* c #251905",
"= c #2A1D06",
"- c #371004",
"; c #381003",
": c #3B1B07",
"> c #342307",
", c #392706",
"< c #3D2907",
"1 c #382608",
"2 c #3D2A08",
"3 c #452F09",
"4 c #49320A",
"5 c #A42A05",
"6 c #AC2C05",
"7 c #BE2F03",
"8 c #BF3A05",
"9 c #C22F02",
"0 c #C43103",
"q c #CA3102",
"w c #C13904",
"e c #CE3C03",
"r c #D13303",
"t c #DF3501",
"y c #E33600",
"u c #E83700",
"i c #E33F02",
"p c #A16C0F",
"a c #BA7C11",
"s c #DE4203",
"d c #E34202",
"f c #E34B04",
"g c #C47A0E",
"h c #C97B0E",
"j c #D27E0E",
"k c #E57D0C",
"l c #C3810F",
"z c #C9860F",
"x c #CE890F",
"c c #D0820F",
"v c #D28B0F",
"b c #C28110",
"n c #C98610",
"m c #CE8910",
"M c #D38C10",
"N c #D88F11",
"B c #E4810D",
"V c #E58C0E",
"C c #E88E0E",
"Z c #E6900F",
"A c #E8910F",
"S c #E49610",
"D c #E69810",
"F c #E89910",
/* pixels */
"   Oqyyyyyyyyyyytyyyyyyytyyyyyyyyyyyyyyyyyyyyyyyyyyyyyyyyyy7.   ",
"   Oqyyyyyyyyyyyyyyyyyyyyyyyyyyyyyyyyyyyyyyyyyyyyyyyyyyyytu7.  o",
"   Oqyyyyyyyyyyyyyyyyyyyyyyyyyytyytyyyyyyyyyyyyyyyyyyyyyyyy7.   ",
"O#O;eddddddddddddddddddddddddddsddddsddddftfddsdsddddddsdddw.  o",
"qqqekCVVVZVVVVVZCVVVCCCVZVZVVVVZVVVVCVZVVVVVVVCCVVVVVVZVVZZgo   ",
"yyydCDDDDDDFDDDDDDDDDDSFDDDDDDDDDDDDDDDDDDDDDDDDDDDDFDFFDDFbo  o",
"yyydCDSDDDFFDDDDDDDDSDDDDDDDDDDDDDDDDDDDDDDDDDSFDDDSDFFFDDFbo   ",
"yyydVDDSmznnSDDDDSDDDDDDDDDDDDDDDDDDDDDDDDDDDDDDDDDSzzzzDDFbo  o",
"yyydVFFm>@@,vDDDDDDDSDDDDDDDDDDDDDDDDDDDDDDDSFDFDDFn=++2MDFbo   ",
"yyydZFFn@  %xDDDDDDDDDDDDDDDDDDDDDDDDDSDDDDDDDDSDDFbo  *MDFbo  o",
"yytdVDDn@  %vFDDDDDSFSFSDDDDDDDFDDDDSDDDDDDSSFDDDDDbo  *MDFbo   ",
"yyydZDFn1@@<vDDDDDDSVVVVVVVVVVVVZVVVVVVVSDDDDDDDDDDn1%@3NDFgo  o",
"yyydVDDSmxmmZDDDDDDCfiiiiiiiididsdididifADDDDDDDDDDSMmmNSFFbo   ",
"yyydVDDDDFDDDDDDDDDViyyyyyyyyyyyyyyyyyydCDDSDDDDDDDDFFFFDFFbo  o",
"yyysCDDDDDDDDDDDSDDViyyyyuyuyyyyyyyyyyydCDDDDDDSDDDDDSDDDDFb+   ",
"yyydCDDDDDDDDDDDVVVkiyytq999q999990qyyydBVVCSDDDDDDDDDDDDDFao  o",
"yyysCDDDDDDDDDDVsdsiyyy0$.O..O.....-ryyyiidfSDDDDDDDDDDDDDFbo   ",
"yyydVDDDDDDZDDDVdyyyyyy0.          #ryyyyyydZDDFDDDDDDDDDDFbo  o",
"yyydVDDDDDDDDDDVdyyyyyy0.          #0uyyyyydZDFFDDDDDDDDDDDbo   ",
"yyydZDDDDDDDDDDViyyyyyu0O   @@@%%@%:ryyyttyshnbmSDSDDDDDDDDgo  o",
"ytydVDDDDDDDDDZVdyyyyyyqO  %ammcmmmjityyutu0&++1MDDDDDDDDDFbo   ",
"yyydVDDDDDDDDDDViyyyyyy0O  %MFFDDFDViyyytuu0.  =MDDDDDDDDDFbo  o",
"yyydZDDDDDDDDDDVdyyyyyyqX  *MFDDDDDViyyyyyu0.  =MDDDDDDDDDFbo   ",
"yyysVDDDDDDDDDDViyyyyuy0O  *MDDDDSDViyyyyyu7.  *MFDDDDDDDDFao  o",
"yyydVDDDDDDDDDDViyyyyyy0O  %MDDDDDDViyyytut0X  *NFSDDDSDDDFb+   ",
"yyydVDDDDDDDDDDCiyyyyyu0O  *MDDDDDDBiyyyutu0.  *MFFDDDDDDDFa+  o",
"yyydZDDDDDDDDADNdyyyuyyqO  %vDDDDSDViyyytut0.  *MSSFDDDDDDFb+   ",
"tyydVDDDDDDDDDDZfdftq0q6.  *MDDDVVVkiyyyutu0.  =NFDDDDDDDDFb+  o",
"yyydVDDDDDDDDDDZCVZh&XX.   %mDDVfiiiyyyytuu0X  *MSSDDDDDDFFb+   ",
"yyydZDDDDDDDDDDDDDFl+      %mFDViyyyyyyyutt0O  *MSDDDDDDDFFbo  o",
"yyydVDDDDDDDDDDDDDDn+      %mFFViyyyyyyytui0O  =NDDDDDDDDDFb+   ",
"yyydVDDDDDDDSDDDDDDn,%%%%%%2cVVkiyytq0000705.  &mDDDDDDDDDFa+  o",
"yyydVDDDDFDFDFDFDDDSMMmMMMMjsiiiyyy0$.X.....   *vFFDDDSDSFFb+   ",
"yyydVDDDDSDSDSDSDDDDDFDFSFSVdyyyyyy0X          *MFDDFSFDDDFg+  o",
"yyyiVFDDSFDDSFDDDDDDDDDDSFDViyyyyyy0.          *MDDDDDDFSDFbo   ",
"yyydCFDDDDFSDDFSDDDDDDFSFSSViyyyyyy0X   @%%%%*%3MFDDFSDSFDFbo  o",
"yyydVDDDSDSFDDSDDDDDDDSDSFDViyyyyyy7.  @aMmmMMMMDFDDSFDDDDFbo   ",
"yyydVDDDFDDDFSFDDDDDFSFDFSSViyyyyyy0.  %MFDFDDDFDDDDDDFSDDFbo  o",
"yyydVDDFDFSFDDDFDDDDDDFSFSFViyyyyyy9.  %mDDDDDSFDDDDSDSDDDFbo   ",
"yyydVDDSDSDDFSDSDDDDFSDFSFSVfdfd0005.  %mDDDDDDDDDDDFDFDDDFbo  o",
"yyydVDDDDDSDSFDDDDSDDDDDDSFDCCCh&...   %mDDDSFDFDDDDDDDDDDFbo   ",
"yyydVDDDFSFDDDFSSDDDDDDDDDDDDDDn@      %mDDDDDDSDDDSDDDDDDDbo  o",
"yyydVDDDDDDFSDSDDDDDDDDDDDDSDSFb+      %MFDDSFSDDDDDDDDDDDFbo   ",
"tyydVDDDFSDSFDFDDDDDDDDSDDDSVVVh:###%*%2MDDDDDFDSDDDDDDDDDFgo  o",
"ytydVDDDDDDDDSDDDDDDDDDDDDDCfddtrrrecMMMSSDDDDDDDDDDDDDDDDFbo   ",
"yyydVDDDDDDDDDDDDDDDDDDSDDDViyyyyyydCFDDDDDDDDDDDDDDDDDDDFFb+  o",
"yyydSDDDDDDDDDDDDSDDDDDDSDSVdyyyyyyfAFFDDDDSDDDDDDDDDDDDDDFb+   ",
"yyydVDDDDSDDDDDDDDSDDDDDDDSViyyyyyysgbbnSDDDDSDDDDSDDDDDDDFa+  o",
"yyydVDDDDDDDDDDDDSFSFDDSFSFViyyyyyy0&oo>MDDDDDDDDDDDDDDDDSFb+   ",
"yyydVDDDDDDDDDDDDFDDSDDFDDSVdyyyyyu7.  %mDDDDDDDDDSDDDDDDDFb+  o",
"yyydVDDDDFFFDDDDDSDDFSFSDFFVdyyyyyu7.  %mDDDDDDDDDFDDFFDDDFb+   ",
"tyydVDDDbbblSDDDDFSFDDDDDSDVfdfs0775.  %MDDDDDDDDDSSnbbnSDFbo  o",
"yyydVDFn=++>mDDDDDDSDDDDSFDSAZAh*...   *MDDDDDDDSDFn=oo1NFFbo   ",
"yyydVDFn@  @mFDDDDDDDSDDDDFSDDFlo      *MDDDDDDDDDFb+  =NFFbo  o",
"yyydVDFn+  @mFDDDDDDDDDDSDSDDDFl+      *MDDDDDDDDDFho  =NSFb+   ",
"yyydVDFn,%%<mDDDDSDDDDDDFDFDDDFn1%*%***3NDDDDDDDDDFn1**4NSFao  o",
"yyydZDDDvvvvDDDDDDDDDDDDDDDDDDDDMmMMMMMNDDDDDDDDFSFSMNNNSFFb+   ",
"yyydVDDADDDFDDDDDADDDDDDDDDDDDDADDDFDDFDDDDDDDDFSFFFSFFFFSFb+  o",
"uyydCDFFFFFFFFFFFFFFFFFFFFDFDDFFFFFFFFFFFFFFFFFFFFFFFFFFFFFb+   ",
"7078glllllllllllllllllllllllllllgbbbbbbbbbbababbbbabbbaaabnpo  o",
"....oooooooooooooooooooo+ooooooooooooooooooooooooooo++o+oooo    ",
"                                                               o",
"                                                                ",
"                                                               o"
};
