/* XPM */
static char *b45fe29b76324761de510ce650bc27b8[] = {
/* columns rows colors chars-per-pixel */
"64 64 223 2 ",
"   c #6D7BDF",
".  c #737FDB",
"X  c #737FDC",
"o  c #707DDE",
"O  c #6D7BE0",
"+  c #6E7BE2",
"@  c #6E7BE3",
"#  c #6E7CE5",
"$  c #6E7CE6",
"%  c #6F7DE8",
"&  c #6F7EEA",
"*  c #707FEE",
"=  c #6F7EF0",
"-  c #6E7DF4",
";  c #7783DE",
":  c #7A85D9",
">  c #7984DA",
",  c #7884DF",
"<  c #7D88DF",
"1  c #7E89DF",
"2  c #7481E1",
"3  c #7683E3",
"4  c #7784E2",
"5  c #7380E5",
"6  c #7583E6",
"7  c #7683E6",
"8  c #7985E0",
"9  c #7884E1",
"0  c #7985E3",
"q  c #7C87E2",
"w  c #7B88E7",
"e  c #7C89E6",
"r  c #7380E8",
"t  c #7280EB",
"y  c #7381EB",
"u  c #7582E8",
"i  c #7583EB",
"p  c #7280EC",
"a  c #7381EC",
"s  c #7281EE",
"d  c #7482EF",
"f  c #7281F2",
"g  c #7281F3",
"h  c #7483F3",
"j  c #7180F4",
"k  c #7382F5",
"l  c #7383F5",
"z  c #7180F6",
"x  c #7181F7",
"c  c #7281F7",
"v  c #7282F6",
"b  c #7282F7",
"n  c #7484F7",
"m  c #7281F8",
"M  c #7282F8",
"N  c #7383FB",
"B  c #7483F9",
"V  c #7585FA",
"C  c #7484FB",
"Z  c #7484FC",
"A  c #7585FC",
"S  c #7484FD",
"D  c #7585FD",
"F  c #7484FE",
"G  c #7485FE",
"H  c #7585FE",
"J  c #7585FF",
"K  c #7586FF",
"L  c #7686FF",
"P  c #7687FF",
"I  c #7787FF",
"U  c #4CD4FF",
"Y  c #59D5FF",
"T  c #5AD7FF",
"R  c #5ED6FF",
"E  c #5FD6FF",
"W  c #65D7FF",
"Q  c #6AD8FF",
"!  c #6BD8FF",
"~  c #6ED9FF",
"^  c #72D9FF",
"/  c #74D9FF",
"(  c #7CDBFF",
")  c #7ADCFF",
"_  c #828DDF",
"`  c #838EDE",
"'  c #848EDD",
"]  c #858FDF",
"[  c #8993DF",
"{  c #8C95DE",
"}  c #9099DF",
"|  c #9AA3DF",
" . c #838EE2",
".. c #848FE1",
"X. c #848FE7",
"o. c #8490E4",
"O. c #8792E5",
"+. c #8F98E0",
"@. c #979DE2",
"#. c #929CE5",
"$. c #97A0E5",
"%. c #99A1E1",
"&. c #9BA3E1",
"*. c #98A0E3",
"=. c #99A1E3",
"-. c #9BA2E6",
";. c #9CA3E5",
":. c #A5ACE7",
">. c #A4AFE8",
",. c #A7AEE8",
"<. c #AAB0E4",
"1. c #AAB0E5",
"2. c #A9B0E6",
"3. c #A9B0E7",
"4. c #ADB4E4",
"5. c #B3B9E8",
"6. c #B6BCE8",
"7. c #B6BDEB",
"8. c #B9BFEB",
"9. c #BABEEB",
"0. c #80DCFF",
"q. c #83DCFF",
"w. c #8ADDFF",
"e. c #8BDDFF",
"r. c #8EDDFF",
"t. c #91DEFE",
"y. c #90DEFF",
"u. c #92DEFF",
"i. c #98DFFF",
"p. c #A9D8F9",
"a. c #A8DBFA",
"s. c #93E0FF",
"d. c #A0E0FF",
"f. c #A8E1FE",
"g. c #A9E3FF",
"h. c #AAE2FF",
"j. c #B0E2FF",
"k. c #B2E3FF",
"l. c #B2E4FF",
"z. c #B3E4FF",
"x. c #B5E5FF",
"c. c #B9E4FF",
"v. c #BAE4FF",
"b. c #BBE4FF",
"n. c #BCE5FF",
"m. c #BFE5FF",
"M. c #C2C6ED",
"N. c #C2C7ED",
"B. c #C3C8ED",
"V. c #C7CCEF",
"C. c #C8CBEF",
"Z. c #CCCEEF",
"A. c #C2CEF1",
"S. c #C7CCF0",
"D. c #C8CDF0",
"F. c #C9CDF0",
"G. c #C9CEF2",
"H. c #C6D1F1",
"J. c #CFD1F0",
"K. c #CFD1F1",
"L. c #CFD4F3",
"P. c #CFD5F4",
"I. c #D2D4F1",
"U. c #D0D4F2",
"Y. c #D0D5F3",
"T. c #D2D5F2",
"R. c #D0D5F4",
"E. c #D2D6F4",
"W. c #D5D9F5",
"Q. c #D4D8F6",
"!. c #D6DAF6",
"~. c #D8DAF6",
"^. c #D8DCF6",
"/. c #D8DCF7",
"(. c #D9DDF7",
"). c #C0E5FF",
"_. c #C7E6FF",
"`. c #CBE4FC",
"'. c #C9E6FF",
"]. c #CAE6FF",
"[. c #CFE8FF",
"{. c #D2E0FA",
"}. c #D0E5FD",
"|. c #D3E5FC",
" X c #DEE2F9",
".X c #DEE3FA",
"XX c #D2E8FF",
"oX c #D6E8FF",
"OX c #D9E9FF",
"+X c #DAEAFF",
"@X c #DBEAFF",
"#X c #DCE8FE",
"$X c #DDE9FF",
"%X c #DEE9FF",
"&X c #DFEAFF",
"*X c #E1E3FA",
"=X c #E1E5FA",
"-X c #E3E6FB",
";X c #E4E6FC",
":X c #E4E7FC",
">X c #E1EAFF",
",X c #E2EAFF",
"<X c #E3EAFF",
"1X c #E6E9FC",
"2X c #E7EAFD",
"3X c #E4EAFF",
"4X c #E7EAFF",
"5X c #E6EBFF",
"6X c #E7EBFF",
"7X c #E0ECFF",
"8X c #E7ECFE",
"9X c #E8EBFF",
"0X c #E9EBFF",
"qX c #EAEBFF",
"wX c #EBEBFF",
"eX c #E8ECFF",
"rX c #E9ECFF",
"tX c #EAECFF",
"yX c #EAEDFF",
"uX c #ECECFF",
"iX c #EDECFF",
"pX c #ECEEFF",
"aX c #EEEFFF",
/* pixels */
"L L L L L L L L L L L L L L L L L L L L L L L L L L L L L L L L L L L L L L L L L L L L L L L L L L L L L L L L L L L L L L L L ",
"L L L L L L L L L L L L L L L L L L L L L L L L L L L L L L L L L L L L L L L L L L L L L L L L L L L L L L L L L L L L L L L L ",
"L L L L L L L L L L L L L L L L L L L L L L L L L L L L L L L L L L L L L L L L L L L L L L L L L L L L L L L L L L L L L L L L ",
"L L L L L L L L L L L L L L L L L L L L L L L L L L L L L L L L L L L L L L L L L L L L L L L L L L L L L L L L L L L L L L L L ",
"L L L L L L L L L L L L L L L L L L L L L L L L L L L L L L L L L L L L L L L L L L L L L L L L L L L L L L L L L L L L L L L L ",
"L L L L L L L L L L L L L L L L L L L L L L L L L L L L L L L L L L L L L L L L L L L L L L L L L L L L L L L L L L L L L L L L ",
"L L L L L L L L L L L L L L L L L L L L L L L L L L L L L L L L L L L L L L L L L L L L L L L L L L L L L L L L L L L L L L L L ",
"L L L L L L L L L L L L L L L L L L L L L L L L L L L L L L L L L L L L L L L L L L L L L L L L L L L L L L L L L L L L L L L L ",
"L L L L L L L L L L L L L L L L L L L L L L L L L L L L L L L L L L L L L L L L L L L L L L L L L L L L L L L L L L L L L L L L ",
"L L L L L L L L L L L L L L L L L L L L L L L L L L L L L L L L L L L L L L L L L L L L L L L L L L L L L L L L L L L L L L L L ",
"L L L L L L L L L L L L L L L L L L L L L L L L L L L L L L L L L L L L L L L L L L L L L L L L L L L L L L L L L L L L L L L L ",
"L L L L L L L L L L L L L L L L L L L L L L L L L L L L L L L L L L L L L L L L L L L L L L L L L L L L L L L L L L L L L L L L ",
"L L L L L L L L L L L L L L L L L L L L L L L L L L L L L L L L L L L L L L L L L L L L L L L L L L L L L L L L L L L L L L L L ",
"L L L L L L L L L L L L L L L L L L L L L L L L L L L L L L L L L L L L L L L L L L L L L L L L L L L L L L L L L L L L L L L L ",
"L L L L L L L L L L L L L L L L L L L L L L L L L L L L L L L L L L L L L L L L L L L L L L L L L L L L L L L L L L L L L L L L ",
"L L L L L L L L L L L L L L L L L L L L L L L L L L L L L L L L L L L L L L L L L L L L L L L L L L L L L L L L L L L L L L L L ",
"L L L L L L L L L L L L L L L L L L L L L L L L L L L L L L L L L L L L L L L L L L L L L L L L L L L L L L L L L L L L L L L L ",
"L L L L L L L L L L L L L L L L L L L L L L L L L L L L L L L L L L L L L L L L L L L L L L L L L L L L L L L L L L L L L L L L ",
"L L L L L L L L L L L L L L L L L L L L L L L L L L L L L L L L L L L L L L L L L L L L L L L L L L L L L L L L L L L L L L L L ",
"L L L L L L L L L L L L L L L L L L L L L L L L L L L L L L L L L F F L L L L L L L L L L L L L L L L L L L L L L L L L L L L L ",
"L L L L L L L L L L L L L L L L L L L L L L L L d > ; N L L L L L 3 > 5 L L L L L L L L L L L L L L L L L L L L L L L L L L L L ",
"L L L L L L L L L L L L L L L L L L L L L L L $ :.-XW.o.N L L b 9 V.:X8.r L L L L L L L L L L L L L L L L L L L L L L L L L L L ",
"L L L L L L L L L L L L L L L L L L L L L L & 6.;XrXaX1.2 f L  .T.0XrX-X] 7 C L L L L L L L L L L L L L L L L L L L L L L L L L ",
"L L L L L L L L L L L L L L L L L L L L L L 5 T.7X>Xc.{.F.$.- +.6X$XOXc.P.N.w L L L L L L L L L L L L L L L L L L L L L L L L L ",
"L L L L L L L L L L L L L L L L L L L L L f >.|.w.'._.n.aX4.. G.l.y.$Xj.OX1X' L P L L L L L L L L L L L L L L L L L L L L L L L ",
"L L L L L L L L L L L L L L L L L L L l . =.;X|.oXrX0X0XrXE.V.8X_.6X6X0XrX0X2.= r V L L L L L L L L L L L L L L L L L L L L L L ",
"L L L L L L L L L L L L L L L L L L b #.(.-X0X0X0X6X0X6X0XrXrX6X0X6X0X6XrXrXL._ 1.r L L L L L L L L L L L L L L L L L L L L L L ",
"L L L L L L L L L L L L L L L L L C O.(.rX6X0X6X0X0X6X0X6X0XrX0X6X0X6X0X6X0XrXW.T.; r L L L L L L L L L L L L L L L L L L L L L ",
"L L L L L L L L L L L L L L L L L e T.rX6X0X6X0X6X0X0X6X0X6X0X6X6X0X0X0X0X6X0XrX6XF.| b L L L L L L L L L L L L L L L L L L L L ",
"L L L L L L L L L L L L L L L L Z  . X0X0X6X0X6X0X6X0X6X6X0X6X0X0X6X0X0X6X0X0X6X6X0X@.N L L L L L L L L L L L L L L L L L L L L ",
"L L L L L L L L L L L L L L L L L b ;.|.n.0X6X0X0X6Xc.>X0X0X0X6X6XwXoX).0X0X0X6XrX7.d L L L L L L L L L L L L L L L L L L L L L ",
"L L L L L L L L L L L L L L L L L L f >.f.i.( $XOXr.q.6X>X'.y.d.wX).^ j.aXXXOX0XrXE. .N L L L L L L L L L L L L L L L L L L L L ",
"L L L L L L L L L L L L L L L L L L L q H.a.0.Q T T Q R / n.j.Q ! U ~ R W w.$XrXrX-X| N L L L L L L L L L L L L L L L L L L L L ",
"L L L L L L L L L L L L L L L L L L L n o @. Xx.y.A.`.( f.;XJ.OXu.p.T.f.) [./.W.N.[ r L L L L L L L L L L L L L L L L L L L L L ",
"L L L L L L L L L L L L L L L L L L L L L b ' M.9.9 } Z.G.{ 9 %.J.;.8 2.J.5.< < 5 V L L L L L L L L L L L L L L L L L L L L L L ",
"L L L L L L L L L L L L L L L L L L L L L L C $ $ L b @ @ b F f O f L =   & Z L L L L L L L L L L L L L L L L L L L L L L L L L ",
"L L L L L L L L L L L L L L L L L L L L L L L L L L L L L L L L I L L L I L L L L L L L L L L L L L L L L L L L L L L L L L L L ",
"L L L L L L L L L L L L L L L L L L L L L L L L L L L L L L L L L L L L I L L L L L L L L L L L L L L L L L L L L L L L L L L L ",
"L L L L L L L L L L L L L L L L L L L L L L L L L L L L L L L L L L L L L L L L L L L L L L L L L L L L L L L L L L L L L L L L ",
"L L L L L L L L L L L L L L L L L L L L L L L L L L L L L L L L L L L L L L L L L L L L L L L L L L L L L L L L L L L L L L L L ",
"L L L L L L L L L L L L L L L L L L L L L L L L L L L L L L L L L L L L L L L L L L L L L L L L L L L L L L L L L L L L L L L L ",
"L L L L L L L L L L L L L L L L L L L L L L L L L L L L L L L L L L L L L L L L L L L L L L L L L L L L L L L L L L L L L L L L ",
"L L L L L L L L L L L L L L L L L L L L L L L L L L L L L L L L L L L L L L L L L L L L L L L L L L L L L L L L L L L L L L L L ",
"L L L L L L L L L L L L L L L L L L L L L L L L L L L L L L L L L L L L L L L L L L L L L L L L L L L L L L L L L L L L L L L L ",
"L L L L L L L L L L L L L L L L L L L L L L L L L L L L L L L L L L L L L L L L L L L L L L L L L L L L L L L L L L L L L L L L ",
"L L L L L L L L L L L L L L L L L L L L L L L L L L L L L L L L L L L L L L L L L L L L L L L L L L L L L L L L L L L L L L L L ",
"L L L L L L L L L L L L L L L L L L L L L L L L L L L L L L L L L L L L L L L L L L L L L L L L L L L L L L L L L L L L L L L L ",
"L L L L L L L L L L L L L L L L L L L L L L L L L L L L L L L L L L L L L L L L L L L L L L L L L L L L L L L L L L L L L L L L ",
"L L L L L L L L L L L L L L L L L L L L L L L L L L L L L L L L L L L L L L L L L L L L L L L L L L L L L L L L L L L L L L L L ",
"L L L L L L L L L L L L L L L L L L L L L L L L L L L L L L L L L L L L L L L L L L L L L L L L L L L L L L L L L L L L L L L L ",
"L L L L L L L L L L L L L L L L L L L L L L L L L L L L L L L L L L L L L L L L L L L L L L L L L L L L L L L L L L L L L L L L ",
"L L L L L L L L L L L L L L L L L L L L L L L L L L L L L L L L L L L L L L L L L L L L L L L L L L L L L L L L L L L L L L L L ",
"L L L L L L L L L L L L L L L L L L L L L L L L L L L L L L L L L L L L L L L L L L L L L L L L L L L L L L L L L L L L L L L L ",
"L L L L L L L L L L L L L L L L L L L L L L L L L L L L L L L L L L L L L L L L L L L L L L L L L L L L L L L L L L L L L L L L ",
"L L L L L L L L L L L L L L L L L L L L L L L L L L L L L L L L L L L L L L L L L L L L L L L L L L L L L L L L L L L L L L L L ",
"L L L L L L L L L L L L L L L L L L L L L L L L L L L L L L L L L L L L L L L L L L L L L L L L L L L L L L L L L L L L L L L L ",
"L L L L L L L L L L L L L L L L L L L L L L L L L L L L L L L L L L L L L L L L L L L L L L L L L L L L L L L L L L L L L L L L ",
"L L L L L L L L L L L L L L L L L L L L L L L L L L L L L L L L L L L L L L L L L L L L L L L L L L L L L L L L L L L L L L L L ",
"L L L L L L L L L L L L L L L L L L L L L L L L L L L L L L L L L L L L L L L L L L L L L L L L L L L L L L L L L L L L L L L L ",
"L L L L L L L L L L L L L L L L L L L L L L L L L L L L L L L L L L L L L L L L L L L L L L L L L L L L L L L L L L L L L L L L ",
"L L L L L L L L L L L L L L L L L L L L L L L L L L L L L L L L L L L L L L L L L L L L L L L L L L L L L L L L L L L L L L L L ",
"L L L L L L L L L L L L L L L L L L L L L L L L L L L L L L L L L L L L L L L L L L L L L L L L L L L L L L L L L L L L L L L L ",
"L L L L L L L L L L L L L L L L L L L L L L L L L L L L L L L L L L L L L L L L L L L L L L L L L L L L L L L L L L L L L L L L ",
"L L L L L L L L L L L L L L L L L L L L L L L L L L L L L L L L L L L L L L L L L L L L L L L L L L L L L L L L L L L L L L L L "
};
