/* XPM */
static char *_ab9b01d756a412a8c4ddc01417aaa9d[] = {
/* columns rows colors chars-per-pixel */
"65 84 113 2 ",
"   c #07050C",
".  c #09070C",
"X  c #07090A",
"o  c #0C0B0D",
"O  c #100F0D",
"+  c #11140E",
"@  c #18120F",
"#  c #151A0E",
"$  c #181D0F",
"%  c #291C0E",
"&  c #2C1E10",
"*  c #16210F",
"=  c #1B240F",
"-  c #1E2410",
";  c #1B2A10",
":  c #1F3311",
">  c #222E11",
",  c #322313",
"<  c #382614",
"1  c #34271A",
"2  c #253311",
"3  c #283612",
"4  c #243C12",
"5  c #2C3B12",
"6  c #3F3226",
"7  c #613B12",
"8  c #403326",
"9  c #513A24",
"0  c #254112",
"q  c #2C4412",
"w  c #2F4813",
"e  c #334513",
"r  c #364C14",
"t  c #384F14",
"y  c #2C5214",
"u  c #355314",
"i  c #395015",
"p  c #325B14",
"a  c #3D5C16",
"s  c #346215",
"d  c #376916",
"f  c #3A6F16",
"g  c #3C7417",
"h  c #3F7B17",
"j  c #435A16",
"k  c #4A5F16",
"l  c #6E461C",
"z  c #6F481E",
"x  c #4A6116",
"c  c #436B16",
"v  c #4A6817",
"b  c #496A18",
"n  c #477317",
"m  c #497718",
"M  c #417E18",
"N  c #527519",
"B  c #547A19",
"V  c #5F462C",
"C  c #61462C",
"Z  c #65492D",
"A  c #744D22",
"S  c #865017",
"D  c #8A551B",
"F  c #905A1F",
"G  c #935E24",
"H  c #9D6225",
"J  c #966128",
"K  c #9C6429",
"L  c #A56B2B",
"P  c #AC6F2E",
"I  c #B5752E",
"U  c #BA782F",
"Y  c #C57F32",
"T  c #428218",
"R  c #498619",
"E  c #4D8B19",
"W  c #518419",
"Q  c #5B851B",
"!  c #518E1A",
"~  c #55921A",
"^  c #59961B",
"/  c #5D9A1B",
"(  c #63831A",
")  c #68871A",
"_  c #628F1C",
"`  c #64941C",
"'  c #619D1C",
"]  c #6C9C1D",
"[  c #72991C",
"{  c #65A11C",
"}  c #6BA61D",
"|  c #6EA91E",
" . c #72A71E",
".. c #72AD1F",
"X. c #7DA91E",
"o. c #76B11F",
"O. c #77B220",
"+. c #7AB420",
"@. c #7EB820",
"#. c #80A81E",
"$. c #89B41F",
"%. c #82B720",
"&. c #8CB720",
"*. c #83BB21",
"=. c #89BE21",
"-. c #91BE21",
";. c #87C021",
":. c #8CC121",
">. c #92C621",
",. c #94C822",
"<. c #9BCC22",
"1. c #9FD122",
"2. c None",
/* pixels */
"2.2.2.2.2.2.2.2.2.2.2.2.2.2.2.2.2.2.2.2.2.2.2.2.2.2.2.2.2.2.2.2.2.2.2.2.2.2.2.2.2.2.2.2.2.2.2.2.2.2.2.2.2.2.2.2.2.2.2.2.2.2.2.2.2.",
"2.2.2.2.2.2.2.2.2.2.2.2.2.2.2.2.2.2.2.2.2.2.2.2.2.2.2.2.2.2.2.2.2.2.2.2.2.2.2.2.2.2.2.2.2.2.2.2.2.2.2.2.2.2.2.2.2.2.2.2.2.2.2.2.2.",
"2.2.2.2.2.2.2.2.2.2.2.2.2.2.2.2.2.2.2.2.2.2.2.2.2.2.2.2.2.2.2.2.2.2.2.2.2.2.2.2.2.2.2.2.2.2.2.2.2.2.2.2.2.2.2.2.2.2.2.2.2.2.2.2.2.",
"2.2.2.2.2.2.2.2.2.2.2.2.2.2.2.2.2.2.2.2.2.2.2.2.2.2.2.2.2.2.2.2.2.2.2.2.2.2.2.2.2.2.2.2.2.2.2.2.2.2.2.2.2.2.2.2.2.2.2.2.2.2.2.2.2.",
"2.2.2.2.2.2.2.2.2.2.2.2.2.2.2.2.2.2.2.2.2.2.2.2.2.2.2.2.- - - - - - - - - - 2.2.2.2.2.2.2.2.2.2.2.2.2.2.2.2.2.2.2.2.2.2.2.2.2.2.2.",
"2.2.2.2.2.2.2.2.2.2.2.2.2.2.2.2.2.2.2.2.2.2.2.2.2.2.2.O ( -.&.$.&.&.&.&.&.$.e 2.2.2.2.2.2.2.2.2.2.2.2.2.2.2.2.2.2.2.2.2.2.2.2.2.2.",
"2.2.2.2.2.2.2.2.2.2.2.2.2.2.2.2.2.2.2.2.2.2.2.2.2.2.$ ) -.1.<.1.<.1.1.<.<.<.#.k   2.2.2.2.2.2.2.2.2.2.2.2.2.2.2.2.2.2.2.2.2.2.2.2.",
"2.2.2.2.2.2.2.2.2.2.2.2.2.2.2.2.2.2.2.2.2.2.2.2.2.- v -.1.<.<.<.<.<.<.<.<.<.1.[ t 2.2.2.2.2.2.2.2.2.2.2.2.2.2.2.2.2.2.2.2.2.2.2.2.",
"2.2.2.2.2.2.2.2.2.2.2.2.2.2.2.2.2.2.2.2.2.2.2.2.2 x =.,.<.<.<.<.<.<.<.<.<.<.<.,.] e 2.2.2.2.2.2.2.2.2.2.2.2.2.2.2.2.2.2.2.2.2.2.2.",
"2.2.2.2.2.2.2.2.2.2.2.2.2.2.2.2.2.2.2.2.2.2.2.. k <.<.<.<.<.<.<.<.<.<.<.<.,.<.<.<.$.- 2.2.2.2.2.2.2.2.2.2.2.2.2.2.2.2.2.2.2.2.2.2.",
"2.2.2.2.2.2.2.2.2.2.2.2.2.2.2.2.2.2.2.2.2.2.2.O x <.,.*.@.:.<.<.%.@.-.<.<.%.%.:.<.$.- 2.2.2.2.2.2.2.2.2.2.2.2.2.2.2.2.2.2.2.2.2.2.",
"2.2.2.2.2.2.2.2.2.2.2.2.2.2.2.2.2.2.2.2.2.2.O N X.*.*.>.>.:.@.=.:.,.-.*.*.>.>.:.=.&.[ 5 2.2.2.2.2.2.2.2.2.2.2.2.2.2.2.2.2.2.2.2.2.",
"2.2.2.2.2.2.2.2.2.2.2.2.2.2.2.2.2.2.2.2.2.2.o Q :.O.+.,.<.>.O.+.<.<.=.O.@.<.<.:.O.+.=.5 2.2.2.2.2.2.2.2.2.2.2.2.2.2.2.2.2.2.2.2.2.",
"2.2.2.2.2.2.2.2.2.2.2.2.2.2.2.2.2.2.2.2.2.2.o B @.=.=.>.>.=.+.+.:.,.=.O.@.:.>.=.*.*.+.3 2.2.2.2.2.2.2.2.2.2.2.2.2.2.2.2.2.2.2.2.2.",
"2.2.2.2.2.2.2.2.2.2.2.2.2.2.2.2.2.2.2.2.2.2.o B =.<.,.@.+.+.@.+.@.+.@.%.@.O.+.=.<.,.+.5 2.2.2.2.2.2.2.2.2.2.2.2.2.2.2.2.2.2.2.2.2.",
"2.2.2.2.2.2.2.2.2.2.2.2.2.2.2.2.2.2.2.2.2.2.o B @.@.+.+.+.=.<.,.@.O.=.,.,.@.+.@.+.@.o.3 2.2.2.2.2.2.2.2.2.2.2.2.2.2.2.2.2.2.2.2.2.",
"2.2.2.2.2.2.2.2.2.2.2.2.2.2.2.2.2.2.2.2.2.2.o B @.+.+.+.+.+.*.*.+.+.+.*.*.+.+.+.+.+.O.3 2.2.2.2.2.2.2.2.2.2.2.2.2.2.2.2.2.2.2.2.2.",
"2.2.2.2.2.2.2.2.2.2.2.2.2.2.2.2.2.2.2.2.2.+ j ` +.+.+.+.+.+.+.+.+.+.+.+.+.+.+.+.+.+.O.B 5 2.2.2.2.2.2.2.2.2.2.2.2.2.2.2.2.2.2.2.2.",
"2.2.2.2.2.2.2.2.2.2.2.2.2.2.2.2.2.2.2.2.2.e  .*.+.+.+.+.+.+.+.+.+.+.+.+.+.+.+.+.+.+.*.@.B 3 2.2.2.2.2.2.2.2.2.2.2.2.2.2.2.2.2.2.2.",
"2.2.2.2.2.2.2.2.2.2.2.2.2.2.2.2.2.2.2.2.q ..+.:.:.+.+.+.+.+.+.+.+.+.+.+.+.+.+.+.+.@.>.*.+.Q - 2.2.2.2.2.2.2.2.2.2.2.2.2.2.2.2.2.2.",
"2.2.2.2.2.2.2.2.2.2.2.2.2.2.2.2.2.2.. t  .+.+.+.+.+.+.+.+.+.+.+.+.+.+.+.+.+.+.+.+.+.+.+.+.+._ $ 2.2.2.2.2.2.2.2.2.2.2.2.2.2.2.2.2.",
"2.2.2.2.2.2.2.2.2.2.2.2.2.2.2.2.2.2.. i *.>.,.*.+.@.>.@.+.O.+.+.+.+.+.+.+.+.+.*.:.+.+.:.,.:.] # 2.2.2.2.2.2.2.2.2.2.2.2.2.2.2.2.2.",
"2.2.2.2.2.2.2.2.2.2.2.2.2.2.2.2.2.2.t Q @.=.:.+.+.+.;.+.+.+.+.+.+.+.+.+.+.+.+.@.=.+.+.=.-.=. .v > 2.2.2.2.2.2.2.2.2.2.2.2.2.2.2.2.",
"2.2.2.2.2.2.2.2.2.2.2.2.2.2.2.2.2.o N *.*.+.+.*.@.+.+.+.+.+.+.+.+.+.+.+.+.+.+.+.+.+.=.+.+.+.*.+.3 2.2.2.2.2.2.2.2.2.2.2.2.2.2.2.2.",
"2.2.2.2.2.2.2.2.2.2.2.2.2.2.2.2.2.O N :.>.+.+.:.:.+.+.+.O.+.+.+.+.+.+.+.+.+.+.+.+.+.,.*.+.*.>.o.3 2.2.2.2.2.2.2.2.2.2.2.2.2.2.2.2.",
"2.2.2.2.2.2.2.2.2.2.2.2.2.2.2.2.2.o N @.+.+.+.+.+.+.+.+.+.+.+.+.+.+.+.+.+.+.+.+.+.+.+.+.+.+.%.o.3 2.2.2.2.2.2.2.2.2.2.2.2.2.2.2.2.",
"2.2.2.2.2.2.2.2.2.2.2.2.2.2.2.2.2.O N +.+.+.+.+.+.+.+.+.+.+.+.+.+.+.+.+.+.+.O.+.+.+.+.+.+.+.+...3 2.2.2.2.2.2.2.2.2.2.2.2.2.2.2.2.",
"2.2.2.2.2.2.2.2.2.2.2.2.2.2.2.2.2.o B +.+.+.+.+.+.+.+.+.+.+.+.+.+.+.O.+.+.+.+.+.+.+.+.+.+.+.+.o.3 2.2.2.2.2.2.2.2.2.2.2.2.2.2.2.2.",
"2.2.2.2.2.2.2.2.2.2.2.2.2.2.2.2.2.O N +.+.+.+.+.+.+.+.+.+.+.+.+.+.+.O.+.+.+.+.+.+.+.+.+.+.+.+.o.3 2.2.2.2.2.2.2.2.2.2.2.2.2.2.2.2.",
"2.2.2.2.2.2.2.2.2.2.2.2.2.2.2.2.2.o B @.+.+.+.+.+.+.+.+.+.+.+.O.+.+.+.+.+.+.O.+.o.+.+.+.+.+.+.o.3 2.2.2.2.2.2.2.2.2.2.2.2.2.2.2.2.",
"2.2.2.2.2.2.2.2.2.2.2.2.2.2.2.2.2.o B +.+.+.+.+.+.+.+.+.+.+.+.+.+.+.+.+.+.+.+.+.+.+.+.+.+.+.+.o.3 2.2.2.2.2.2.2.2.2.2.2.2.2.2.2.2.",
"2.2.2.2.2.2.2.2.2.2.2.2.2.2.2.2.2.o N +.+.+.+.+.+.+.+.+.+.+.+.+.+.+.+.+.+.+.+.+.+.+.+.+.+.+.+.o.3 2.2.2.2.2.2.2.2.2.2.2.2.2.2.2.2.",
"2.2.2.2.2.2.2.2.2.2.2.2.2.2.2.2.O j ` +.+.+.+.+.+.+.+.+.+.+.@.:.+.+.*.=.+.+.+.+.+.+.+.+.+.+.+.O.m q 2.2.2.2.2.2.2.2.2.2.2.2.2.2.2.",
"2.2.2.2.2.2.2.2.2.2.2.2.2.2.2.2.e } @.+.o.....o.+.+.+.+.+.+.@.>.+.+.*.:.+.+.+.+.+.+.+.......+.+.@.N 3 2.2.2.2.2.2.2.2.2.2.2.2.2.2.",
"2.2.2.2.2.2.2.2.2.2.2.2.2.2.2.> ..+.+.+.o.' ' ..+.O.+.+.@.+.+.+.@.@.+.+.+.+.+.+.+.+.+.{ / } +.+.+.+.B o 2.2.2.2.2.2.2.2.2.2.2.2.2.",
"2.2.2.2.2.2.2.2.2.2.2.2.2.2.2.2 ..+.+.+.+.o.O.O.+.+.+.+.:.:.+.+.,.,.:.+.+.,.*.+.+.+.+.+.O.+.+.+.+.@.B + 2.2.2.2.2.2.2.2.2.2.2.2.2.",
"2.2.2.2.2.2.2.2.2.2.2.2.2.2.e ` +.+.+.+.+.+.+.O.+.+.+.+.@.+.+.+.*.*.@.+.+.=.+.+.+.+.+.+.+.+.+.+.+.+.| B # 2.2.2.2.2.2.2.2.2.2.2.2.",
"2.2.2.2.2.2.2.2.2.2.2.2.2.. i +.} } ..+.o.} | o.+.+.+.+.+.+.+.+.O.+.+.+.+.+.+.+.+.+.+.} } | +.+...} ..] $ 2.2.2.2.2.2.2.2.2.2.2.2.",
"2.2.2.2.2.2.2.2.2.2.2.2.2.. t O.{ { ..+.../ / ..+.O.+.+.+.+.+.+.+.+.+.+.+.+.+.+.+.+.+.' / { +.+.} { | ] $ 2.2.2.2.2.2.2.2.2.2.2.2.",
"2.2.2.2.2.2.2.2.2.2.2.2.2.X r +.+.+.+.O.../ / | @.+.+.+.+.+.+.+.+.+.+.+.+.+.+.+.+.+.+.{ / { O.O.+.+.+.` $ 2.2.2.2.2.2.2.2.2.2.2.2.",
"2.2.2.2.2.2.2.2.2.2.2.2.2.. q { +.+.} / / / / ..+.+.+.+.+.+.+.+.+.+.+.+.+.+.+.+.+.+.+.{ / / ' ' O.+...W # 2.2.2.2.2.2.2.2.2.2.2.2.",
"2.2.2.2.2.2.2.2.2.2.2.2.2.o q { +.+.{ / / / / | +.o.{ o.+.+.+.+.+.+.O.+.+.+.+.| } +.+.{ / / / / ..+...W # 2.2.2.2.2.2.2.2.2.2.2.2.",
"2.2.2.2.2.2.2.2.2.2.2.2.2.. t } } } } | } / / ..+.o.| O.+.+.+.+.+.+.+.+.+.+.+.....+.+.{ / / } ..}  .} ^ # 2.2.2.2.2.2.2.2.2.2.2.2.",
"2.2.2.2.2.2.2.2.2.2.2.2.2.. r | / / } ..| / / } o.+.+.....o.+.O...| O.+.+.....O.+.+.../ / { ..../ / { ` # 2.2.2.2.2.2.2.2.2.2.2.2.",
"2.2.2.2.2.2.2.2.2.2.2.2.2.. q / { / / / / / / / } +.o.{ ' | +.o.{ ' | +.O.{ / | +.../ / / / / / / / { W # 2.2.2.2.2.2.2.2.2.2.2.2.",
"2.2.2.2.2.2.2.2.2.2.2.2.2.. q { O.+.{ / / / / / } +.+.O.o.o.+.o.O.O.O.O.O.O.o.O.+.o./ / / / / / ..+...W # 2.2.2.2.2.2.2.2.2.2.2.2.",
"2.2.2.2.2.2.2.2.2.2.2.2.2.o q / { { ' / / / / } | { { o.+...{ { O.+...{ { +.+...{ { ..{ / / / / { { ' W # 2.2.2.2.2.2.2.2.2.2.2.2.",
"2.2.2.2.2.2.2.2.2.2.2.2.2.o q / / / / / / / / { { / / o.+.| / { O.+.} / / +.+.} / / { { / / / / / / / W # 2.2.2.2.2.2.2.2.2.2.2.2.",
"2.2.2.2.2.2.2.2.2.2.2.2.2.o q / / / / / / / / / / ' { ....} { { | ..} { { ....} { / / / / / / / / / / W # 2.2.2.2.2.2.2.2.2.2.2.2.",
"2.2.2.2.2.2.2.2.2.2.2.2.2.. q / / / / / / / / / / ' ..' / } o...' / } o...' / } } / / / / / / / / / / W # 2.2.2.2.2.2.2.2.2.2.2.2.",
"2.2.2.2.2.2.2.2.2.2.2.2.2.. q / / / / / / / / / / / / / / / ' / / / / ' ' / / / / / / / / / / / / / / W # 2.2.2.2.2.2.2.2.2.2.2.2.",
"2.2.2.2.2.2.2.2.2.2.2.2.2.2.= w ^ / / / / / / / / / / / / / / / / / / / / / / / / / / / / / / / / / m : 2.2.2.2.2.2.2.2.2.2.2.2.2.",
"2.2.2.2.2.2.2.2.2.2.2.2.2.2.2.; ^ / / / / / / / / / / / / / / / / / / / / / / / / / / / / / / / / / c o 2.2.2.2.2.2.2.2.2.2.2.2.2.",
"2.2.2.2.2.2.2.2.2.2.2.2.2.2.2.- c ~ ' ^ ~ ~ / / / / ! / / / / / / / / / / / / ~ / / / / / ~ ! / / W u o 2.2.2.2.2.2.2.2.2.2.2.2.2.",
"2.2.2.2.2.2.2.2.2.2.2.2.2.2.2.2.# n / ! T R ~ / / ^ R ^ / / / / / / / / / / / ! R / / / ! T R ^ ~ w o 2.2.2.2.2.2.2.2.2.2.2.2.2.2.",
"2.2.2.2.2.2.2.2.2.2.2.2.2.2.2.2.2.# f / / / / / / / / / / / / / / / / / / / / / / / / / ^ / / ^ 4 + 2.2.2.2.2.2.2.2.2.2.2.2.2.2.2.",
"2.2.2.2.2.2.2.2.2.2.2.2.2.2.2.2.2.o p ~ / / E R ! / ^ E T ~ / ^ R R ! / / E R ! / / R R ~ / / R ; 2.2.2.2.2.2.2.2.2.2.2.2.2.2.2.2.",
"2.2.2.2.2.2.2.2.2.2.2.2.2.2.2.2.2.o y E ! E T T E / / ~ ~ ~ / / ! ! ^ / / ! ! ~ / / T T R E E h ; 2.2.2.2.2.2.2.2.2.2.2.2.2.2.2.2.",
"2.2.2.2.2.2.2.2.2.2.2.2.2.2.2.2.2.O p R M M T R E ~ ~ / / / ~ ~ / / ^ ! ~ / / ^ ~ ! E T T T T E ; 2.2.2.2.2.2.2.2.2.2.2.2.2.2.2.2.",
"2.2.2.2.2.2.2.2.2.2.2.2.2.2.2.2.2.O a E T T T ! ! T T / / E T E / / ! T T / / ! T T / R T T T R > 2.2.2.2.2.2.2.2.2.2.2.2.2.2.2.2.",
"2.2.2.2.2.2.2.2.2.2.2.2.2.2.2.2.2.2.# 0 T T T T T T T / / E T T ^ / E T R ^ / E T M T T T T g = 2.2.2.2.2.2.2.2.2.2.2.2.2.2.2.2.2.",
"2.2.2.2.2.2.2.2.2.2.2.2.2.2.2.2.2.2.o 0 T T T T T T ~ E E E ~ ~ E E E ~ ~ E R ! ! T T T T T g # 2.2.2.2.2.2.2.2.2.2.2.2.2.2.2.2.2.",
"2.2.2.2.2.2.2.2.2.2.2.2.2.2.2.2.2.2.2.; y T T T T T E T T T E E T T R E E T T R E M T T T f 0 2.2.2.2.2.2.2.2.2.2.2.2.2.2.2.2.2.2.",
"2.2.2.2.2.2.2.2.2.2.2.2.2.2.2.2.2.2.2.2.* p T T T T T T T T T T T T T T T T T T T M T T g 0 o 2.2.2.2.2.2.2.2.2.2.2.2.2.2.2.2.2.2.",
"2.2.2.2.2.2.2.2.2.2.2.2.2.2.2.2.2.2.2.2.2.+ s T T T T T T T T M T T T T T T T T T T T g 0 . 2.2.2.2.2.2.2.2.2.2.2.2.2.2.2.2.2.2.2.",
"2.2.2.2.2.2.2.2.2.2.2.2.2.2.2.2.2.2.2.2.2.2.# y T M T T T T T T T T T M T T T T M h h : + 2.2.2.2.2.2.2.2.2.2.2.2.2.2.2.2.2.2.2.2.",
"2.2.2.2.2.2.2.2.2.2.2.2.2.2.2.2.2.2.2.2.2.2.2.; ; 4 h T T T T T T T T T T T T T d ; ; 2.2.2.2.2.2.2.2.2.2.2.2.2.2.2.2.2.2.2.2.2.2.",
"2.2.2.2.2.2.2.2.2.2.2.2.2.2.2.2.2.2.2.2.2.2.2.2.2.* 0 0 0 0 0 0 0 0 4 4 0 0 0 0 4 2.2.2.2.2.2.2.2.2.2.2.2.2.2.2.2.2.2.2.2.2.2.2.2.",
"2.2.2.2.2.2.2.2.2.2.2.2.2.2.2.2.2.2.2.2.2.2.2.2.2.2.o o . o @ < , < < % o o o o 2.2.2.2.2.2.2.2.2.2.2.2.2.2.2.2.2.2.2.2.2.2.2.2.2.",
"2.2.2.2.2.2.2.2.2.2.2.2.2.2.2.2.2.2.2.2.2.2.2.2.2.2.2.2.2.2., J S G F 7 O 2.2.2.2.2.2.2.2.2.2.2.2.2.2.2.2.2.2.2.2.2.2.2.2.2.2.2.2.",
"2.2.2.2.2.2.2.2.2.2.2.2.2.2.2.2.2.2.2.2.2.2.2.2.2.2.2.2.2.2., J S G G 7 O 2.2.2.2.2.2.2.2.2.2.2.2.2.2.2.2.2.2.2.2.2.2.2.2.2.2.2.2.",
"2.2.2.2.2.2.2.2.2.2.2.2.2.2.2.2.2.2.2.2.2.2.2.2.2.2.2.2.2.2.% D I L H z O 2.2.2.2.2.2.2.2.2.2.2.2.2.2.2.2.2.2.2.2.2.2.2.2.2.2.2.2.",
"2.2.2.2.2.2.2.2.2.2.2.2.2.2.2.2.2.2.2.2.2.2.2.2.2.2.2.2.2.. & S Y P K A O 2.2.2.2.2.2.2.2.2.2.2.2.2.2.2.2.2.2.2.2.2.2.2.2.2.2.2.2.",
"2.2.2.2.2.2.2.2.2.2.2.2.2.2.2.2.2.2.2.2.2.2.2.2.2.2.2.2.2.X & D U P K l O 2.2.2.2.2.2.2.2.2.2.2.2.2.2.2.2.2.2.2.2.2.2.2.2.2.2.2.2.",
"2.2.2.2.2.2.2.2.2.2.2.2.2.2.2.2.2.2.2.2.2.2.2.2.2.2.2.2.2.X , J K P H 7 O 2.2.2.2.2.2.2.2.2.2.2.2.2.2.2.2.2.2.2.2.2.2.2.2.2.2.2.2.",
"2.2.2.2.2.2.2.2.2.2.2.2.2.2.2.2.2.2.2.2.2.2.2.2.2.2.2.2.2.X , J K P H 7 O 2.2.2.2.2.2.2.2.2.2.2.2.2.2.2.2.2.2.2.2.2.2.2.2.2.2.2.2.",
"2.2.2.2.2.2.2.2.2.2.2.2.2.2.2.2.2.2.2.2.2.2.2.2.2.2.2.2.2.X & D U P H z O 2.2.2.2.2.2.2.2.2.2.2.2.2.2.2.2.2.2.2.2.2.2.2.2.2.2.2.2.",
"2.2.2.2.2.2.2.2.2.2.2.2.2.2.2.2.2.2.2.2.2.2.2.2.2.2.2.2.2.o & S Y P K A O 2.2.2.2.2.2.2.2.2.2.2.2.2.2.2.2.2.2.2.2.2.2.2.2.2.2.2.2.",
"2.2.2.2.2.2.2.2.2.2.2.2.2.2.2.2.2.2.2.2.2.2.2.2.2.2.2.2.2.X & D U P K l O 2.2.2.2.2.2.2.2.2.2.2.2.2.2.2.2.2.2.2.2.2.2.2.2.2.2.2.2.",
"2.2.2.2.2.2.2.2.2.2.2.2.2.2.2.2.2.2.2.2.2.2.2.2.2.2.2.2.2.X , J K P H 7 O 2.2.2.2.2.2.2.2.2.2.2.2.2.2.2.2.2.2.2.2.2.2.2.2.2.2.2.2.",
"2.2.2.2.2.2.2.2.2.2.2.2.2.2.2.2.2.2.2.2.2.2.2.2.2.2.2.2.2.X , J K P J 7 O 2.2.2.2.2.2.2.2.2.2.2.2.2.2.2.2.2.2.2.2.2.2.2.2.2.2.2.2.",
"2.2.2.2.2.2.2.2.2.2.2.2.2.2.2.2.2.2.2.2.2.2.2.2.2.2.2.2.2.2.1 V C Z C 9 2.2.2.2.2.2.2.2.2.2.2.2.2.2.2.2.2.2.2.2.2.2.2.2.2.2.2.2.2.",
"2.2.2.2.2.2.2.2.2.2.2.2.2.2.2.2.2.2.2.2.2.2.2.2.2.2.2.2.2.2.2.6 6 6 8 2.2.2.2.2.2.2.2.2.2.2.2.2.2.2.2.2.2.2.2.2.2.2.2.2.2.2.2.2.2.",
"2.2.2.2.2.2.2.2.2.2.2.2.2.2.2.2.2.2.2.2.2.2.2.2.2.2.2.2.2.2.2.2.2.2.2.2.2.2.2.2.2.2.2.2.2.2.2.2.2.2.2.2.2.2.2.2.2.2.2.2.2.2.2.2.2."
};
