/* XPM */
static char *_1aca75e976f403295c854c846c15618[] = {
/* columns rows colors chars-per-pixel */
"64 64 60 1 ",
"  c #2A6F38",
". c #2B763E",
"X c #2D7A3F",
"o c #307437",
"O c #30773A",
"+ c #327E3E",
"@ c #2A7741",
"# c #2C7A40",
"$ c #327D40",
"% c #35803F",
"& c #3C863D",
"* c #448B3F",
"= c #4A8E3E",
"- c #4C913F",
"; c #53973F",
": c #57993F",
"> c #5B9C3E",
", c #5FA13F",
"< c #62A33E",
"1 c #73AE3E",
"2 c #76B13E",
"3 c #7BB53E",
"4 c #7EB93F",
"5 c #368140",
"6 c #388040",
"7 c #4C9140",
"8 c #459E47",
"9 c #4C9D45",
"0 c #469F48",
"q c #4F9F48",
"w c #509640",
"e c #5B9C40",
"r c #47A147",
"t c #4EA446",
"y c #45A148",
"u c #4CA248",
"i c #51A546",
"p c #56A845",
"a c #5AA945",
"s c #50A548",
"d c #63AE43",
"f c #73AE40",
"g c #66B143",
"h c #6CB342",
"j c #72B642",
"k c #75B842",
"l c #7CBB41",
"z c #82BD3F",
"x c #83C03F",
"c c #8CC43E",
"v c #92C73F",
"b c #96CA3E",
"n c #9BCC3D",
"m c #A3D23E",
"M c #82BF41",
"N c #86C141",
"B c #8AC340",
"V c #92C741",
"C c #95C940",
"Z c #99CC40",
/* pixels */
"Biiitttttttttstttiitttittttttttttttitittttttitiiirttitttitsistpb",
"Bistttttttititituchtt99ittittttttttititittttttriititttttttrrttpb",
"Bitthauiiittttttihattuuuittithptttttitt9tttt<dritittttttiid4gupv",
"cittcdtttttisittirtitttittittcgtttitituwttttx4rittttiitiirhnzuav",
"Biissittttrdcttt89itiiirtttitiitititttiisitxhjxtitttritiiiipstpb",
"cittutiiiitpjttittttriiitittitttttttttuttirhadgrttiihpututututpv",
"citt99tittttrttitiitssiitttttitittiitiiitttuttrit9tivatitti99tpv",
"Btitutiittiisittttttiiritt9ttttttturdButtttittitttttptttittttuav",
"citittttttttttiitttttdgtttrtttttttttp4gsititiittttitttttttttttav",
"ciriitiiitttttiittttyjxrttttittttttitpcsttttttttttitttittittitav",
"csitirMhrsitactitttpstptttittxdriitttsptttittittuuuttititttt9tpv",
"cstritjgrsitpkiittttttiittttd4jptttttttttittiittphgitttttttagtav",
"ci9utttttiitirittttttttpitsiv,xjuttttttiitttttttanbititi990hcupv",
"cittttttttittittt;rtttttttttaiisttttittitttlhritiaatitttiiippupv",
"cittttttttttttitrtttttttttittttttttttritiitjgttttttttttiiuiuuipv",
"ctuttttitttitittttpttttptittittitttttwtttttrtttttiittittt9uiiipv",
"xpxcatitituitiitttrttttitiittittuhlritittt>ttttttiutitithvhtitav",
"Bp4zaittuaaiitttiagpttttittttttiuhkrtttptttttttttidtttithcgtttpv",
"Biuustts0hB0ittttxmhritittititttttttitttttttttrttabuttttttttiuav",
"Biuittttjkgltt>ttadpiitr9tttttttitttittttittttttazdxpttttttttuav",
"cititiiuhkhlttiitttriitrttttditttttittttattittttaxi4iititittitav",
"xiiusttirhN0iutitittiiiittticatttiitttssbdrttttttrutititttitttav",
"ciii9uttipattt9uttiiiitiiiiicdttttttttttdtiittttttiittttitttttpv",
"ciit9uttittttt9ittiritttstti4atitittttttuttitpttttttttittttttuav",
"citttttittiittsisttitttttitttttttitriitiitttttttttt9ttttttrsiwib",
"ctttttitttttitttsttthhrttpttttitirgkrstttttttttttttttitit1htitpv",
"Biittttttpptttittsirjkttttttstttirgliititt9ttiiitiitttisrh4riupv",
"Bittttttr2ztttutttttttttttttttiiitiitttttttt>rritttttittttrituav",
"cittkautradttilptttttittt9tttittttttttttittiuhhtittittttittittpb",
"cittcgttittitpxptitriittttitttitt9ttttttittsuh4uitititititititav",
"csttBgutitittttttt9;iitittttitttttttttttttttttttitttrittuiitttpv",
"Bittgptttttttittttttttttttttttitttttptitttttttttttii3ptitttttuav",
"Btttrttttttttitittittttitittattttistttiiiitttttttttpcdittrttttav",
"Bpttttt>0utttttttittiritttspVdttttriitttirtitttttttttcdtttttitpv",
"Btttptttutitttiiitttttitttttgpttt<jrittttj<titttttttigpttittttav",
"cpttttttttttipittisiitiittttrttsrhNiittitNdrittittsttrttttiiitpb",
"Ntrittttttttictitirxjyiitsiiptttsrjxtttttititttttttttiti99uhcrab",
"Bttittitttip4jkttitdkgrstrtittttttpgtttttiiiitiittitttittttagrpb",
"cirttttsiu9dctcptiiy24rttritsttttittttttttssitiipttiitttttit9tav",
"cstittul4uiitssritttiittttitttttttisittstitsrriittaVptittttttuav",
"cttttttddrstttiitttitittttitttptttttttttttttggrsitthstttttttitav",
"csiitiprristwtttiiittttiiittttttitt9ttptttttxlrstiitititttttttpb",
"Npcattttitiirtiiriittttttipcartttttttacptirxhgxriitiittittitttpv",
"Bs2ptttttttiittthprsittittt2pttttttttpjtittgjjgtiritttiu<duttuav",
"cirtttttttiittiucgritiittttrtttttitttittitpy44ytttttttiuxktttuav",
"citttttttttrtitiiiittttttptttttttttttttttittttttttti9uuzg24uitpb",
"cttuttttitagtttttipttagtttttttttttttttttttttttttttttuithjjg0iipv",
"ctritttpiugctitittttr2xritittttt;ttttttttttttttttiittttrlj0tiipv",
"Bittitttttiputitit98tiiiititttttuj49tiittittttttttttttttpptpttpv",
"Bttttttittiuittttitttttttitittttughtitttttitttttpgitpttttrttttpv",
"cittttttittittittiiitttttttt>titrttttttttititittdcttttititttttpv",
"citiuMguitu9tittiriittititiciuittitttt0tiuzguittipttttttrjblttpb",
"cititjduttttititt<artttttuplhiuititttt9ittkduittttttptiiugzhttiv",
"cisttutitttitttiuchuiti9wiirvauitttttttttttttitu;ttttitttuuuttav",
"citttiittiitttittaiittttrttiaitttttitttttiutttiurtttttttttitttpb",
"Bttttttttttstittttititttittttiitittttittittttitttttttitiittiiupb",
"Bpiirissiiutittiuiiuiiiiiiuussttsttstiiiuiittutsttuiiiittiittupb",
"Brr4cayjh8dluuutlpkdgj0urizirlarrhjrurutzput0hkyaB4uruyjgruaBliv",
"cgdcnjaNxakc<d<dvhNllMdg<jvhdVjda4NdgdddvhagazNahnvhdgdB4daknchv",
"ZnnbbnmZbnnbnbnnbnZbZZnvbbbnnbZnnnZnnbnnnnnbnbnnnbvnbnnbnbnnbbnv",
"*--v>=762457>bb;77-=7=dnZc--=7*4f=7*>Zbw=7*4m2*7=>v;V:=7*34*-=;b",
"oX+1*X+.>aX%&42%X++$$.=441%X$+.<;.++&l2$++X,zw.+X&1%2&X+.>,@+X&2",
"o+%$%%55%+%%%%%%555%55%++%%%55%++566++++%55+$+55%%+%$+55%++6%%+ ",
"O%+%%%%%+%%%%5%%%%+%%+%5%%%%5%%5%5%%%6%%%+%%5%%%%%5%5%%%%+%%%%+o"
};
