/* XPM */
static char *ae644bc399124791a4785a8e142564a0[] = {
/* columns rows colors chars-per-pixel */
"65 65 64 1 ",
"  c #2A6F38",
". c #2D7138",
"X c #2C7A3F",
"o c #307437",
"O c #30763B",
"+ c #327D3E",
"@ c #327C40",
"# c #35803F",
"$ c #3D863E",
"% c #3E883F",
"& c #41833B",
"* c #448C3F",
"= c #4A8E3F",
"- c #4E933F",
"; c #5A9D3F",
": c #5EA03F",
"> c #63A33E",
", c #6AA73F",
"< c #6CAA3D",
"1 c #72AE3D",
"2 c #6DB33F",
"3 c #74B33F",
"4 c #7AB53E",
"5 c #74B83F",
"6 c #7CBC3F",
"7 c #368140",
"8 c #428A40",
"9 c #4B9443",
"0 c #459E47",
"q c #4C9D45",
"w c #459E48",
"e c #499F48",
"r c #519640",
"t c #549940",
"y c #589A40",
"u c #46A146",
"i c #4EA446",
"p c #4CA248",
"a c #51A546",
"s c #56A844",
"d c #5BAA44",
"f c #51A548",
"g c #65A640",
"h c #63AE43",
"j c #66B043",
"k c #6BB343",
"l c #72B642",
"z c #74B842",
"x c #7BBB41",
"c c #82BD3F",
"v c #88BF3F",
"b c #84C03F",
"n c #8BC43E",
"m c #93C73F",
"M c #96CA3E",
"N c #9ACB3E",
"B c #9FD13E",
"V c #A2CF3E",
"C c #A4D33E",
"Z c #81BE41",
"A c #85C140",
"S c #8AC340",
"D c #92C640",
"F c #95C940",
/* pixels */
"naiiiiaiiaiaiaiiiiaiiiqiiaafiaaiiiiiaiiiiiaiiaiiiiiaaiiiaiiafiism",
"Saiipiiaiiiaiaaapzxpiiqiiiiifipiiiiiiaaaiaiaauiaiiiaiiiaiiaippism",
"naaijdiiiiaiiaiipjjiiiiiiiiiidjiaiaiaaauiiiii2saiiiiiiaiaaidzjpsm",
"naipnkpiaiiiiiiaippiiaiaiaiapkbpiiaiaaaqiiiianhu;iiiiaiiifpzV6pdm",
"nifisaaaiiisnsiaqqaiiiiiaiiafasiiiaiiiauiiisndZ2uiiiiuiaiiisssidm",
"naiiiiiiiiia5saaiiiaiiiiiaiiiiiaiiiiaiaafiii5ilhiiiis<aiiiiiiqism",
"Saif9qiiiiiiuiaiiaiiiiiiiiaaifiiiiiaiaiaifiiufiiiuqidMaiiiiaqqism",
"Siiiiiiiiaiaaiaiiiaiiaiiiiqqiaiiaaiip520siiiiiiiiaaaidiiiiiaiiasm",
"nafiiiiiiiiiiiiiiiiiifhfiaeiiiiiiiiau36siiiiiiiiiiiiiiiiaiiiaaidD",
"Siiiiiiiiiiiiiii;uiiidFsiiiiiiiaiiiiiqzcpiiiifisfiaiiiaiaiiiiiidM",
"Saiiiizliaaaf6diaaaaiihiiiaa0hzpaaiaaisdiiiiiiiiiiiiiiaaiiiiiiidm",
"nafiiu55paiifZ>uiaauiiuiaiiia3Zsaaiaaaaiaiiaaiiiisddfiiiiiiisdqsm",
"Ss0iiiiiiiiifiiiaaaaiiiaiiae66dmuaiaaiuiiiiiiiiiplVAiipaiqqplZedm",
"Saqiiiiiiiiiiiiiauqaiaiiiaaiddsjaaaiaiaaiiaa6siiisjhfiiiiiiidhidm",
"naaaifiiiisiiiiiaqqaaiaiaiiiipiiaaaaaiiaaiiansiiiippaiaiiiiiiiism",
"niupiiisiiiiiiiiiiiiaiiiaiiaiaiauauia9uaiiiiiiiiiiafiiiaaqeiiiidm",
"nal6siiiaiiaiaiiifiiiiiaiaiaiiaiiildiiiiiaiiiiiaiiiiiiaaij6hiiism",
"nsnNhpiiaaafiiiiiasaaiiaiiiiaiiiiimdpiiiiiiaiaiiiifaaiiiicNkpiidm",
"SsiaiiiiidnuiiaapzBZiaiiaaiiiiiiiaaaiiiiiiiiaiaqqwjn0aaiiaaaaaidm",
"niipiiiiszl2aiiaidzjiiiiqiiiiaiaiiiiiiiiifiaiiaqihzz2iaaiapaiiism",
"nsiiiiaukbsmaiiaiiupiiiieiiiafiiiiiiafiiaaiiiaiauzzdmiaiaiiiiiism",
"naiiiiiaijmiaiiaiiaaiiapiiiplxpiaiiaaiipjAiaaiaiifafaiiiiiaiiiasm",
"niiaiiiais5uaaiuiaaiaiaiiifuzAuiiiiiiaaidlifaiiiaiiiiiiaiiaiiiism",
"Siia9qiiaauiaa9iiiiaiiaifffulZpfiaiaiiiiapiiiiiaiiiiiiiiiaiaiaadF",
"Saiiiiiiiaaiiiaiiaiiipaaiaaissiiaiaiiiiiiiiiiiiaiiipaiiiiiiiii9dm",
"Saiiiiiaiiiiiiiiiiaishiiuaaiiiiiiiidsiiiifiiiiiiaiipuiiiiihsiuudm",
"naaiiiiiiiiiiiiiaiiuhmaaaaiiii;uaiiDjpiiiiiriiiiiiiaaaiiapc6uaasm",
"naiiiiifihZiiiiiaiaisduiiqqaiiiaiiidsiiiiiiiiiiiaiaaaaiiiissuaadm",
"baiidsiiudbiiissiiaiipaaiquaaaiiiiifiiiiaiiiiidsiiiisiiiiiiiaaasm",
"naipSkififiiiimjqiiiiiaaiiiiiaaiiiqiiiiiiiiaiiv2uiiiiiiiiiiiaaasm",
"SiiiSkpiiaiaiidsaauiiiaiaiiiiiiaiiiiiiiaaiiiiidsiiaifiiiiiiiiiism",
"Saiixjpiiiiiiiiiaai9aiiaiiiaaiiaiiaiiiiiiiiiiiiiiiaiidiiisiiiii:m",
"niiaiiiiaaiiiaiiiaiiiiiaiiifiuiiiiiiiifiaaaaaaaaiiiidMiiiiiiiaidD",
"niiiiiaiuqiaaaiiiiiiaiiaiiipjliiiiiiiiiaaauaiiauiaiiilzaiiiiiiidM",
"naiiiaiai9iiiaiiiaiiaiaiiisulxiiiisiaaiiaaaiaaaaiiiiiin;iiiiiiidm",
"baiiiiiiaaiaauaiiiiiiiiiiiiiiiiiiaDdpaiauhnaiuaaaiiiiiiiiisiiuidm",
"na0aaaaaaaiiaksiaaidkiiiaiaiiifiiakzdiiiiskiiiiiiiaiiaiaaqiihkidm",
"ns-iaiiiaiaisnhaiipjniiaiiiiiiiiiipnhpiiiipaiiaiiaiaaaaia0iilbusm",
"niiiaaaauaiamsShpiaihnuaiqiiiisiiiiaaaiaiiaaiaiiiiiiuaaiiiiiiiidm",
"niiiaaudhaaa5akdiiiis3aaiiiiiiiiiiiiiiiiiiiiiiaiaiisjaaiiiiiiiism",
"niiiiauzZeaiiipiiiiiaiiiiaiiaiaiaiaiiiiiiiiiaiaiiiphDiiiaiiiaaidm",
"napiiifssfii9iiiiiiiiiiiiiiiiiiiiiaeiiiiiiiiqSdpaiissfiiiiaiiiasm",
"Sijiiiiiiiaiqiiiiiiiiiiiiiihhiiiaiiqiiddiiaahxlsiaiiiiiiiiiiaaism",
"nsMdiiiiiiaiiifiiiiiifiiiiuxxuiiaiaiip6cefismiSkufiiiiiiiiiiaaidD",
"ni:apiiiaaiiiiiuz2iiaiiiiiis;iiaiaiiiissiiaidbjsiiiiiiiipxhpiiisM",
"nfiaiiiiiaiaiiaizkiaiaaaiiiiiiiiiiiiiiiiiiiaicspaiaiiiiisxzsiiasm",
"niiaiiiiiiiiiaiaiiiiiiiiisiiiiaiiiiiaaiiiiiiiiiiiaiii9iams6zpaism",
"niiifiiiiisxaaiiiaiiisZaiiiiiiaiqiiaaiaiiiiiiaiiiifiiiaad62siaidm",
"napaiifiaidbaiaiaiuiisbaiiiauaauqidiiiiaiiaiisiaiiiiiiiau6hpaiusm",
"Saiaiiiiiiiiaaiiiaqqiaiaaaiiaiaaiimhiiiiiaiiiiiaaiiiaiaaiiaiaiadm",
"naiiiifiaiiaaiiaaaupiiiiiiaiiiiiiihsiiiiaiiiiiiaijkiaaaiiiiaiaasD",
"Siiiisaiaaiuiiiiaaaiaaaiiii;saiiiiiiiiiiiiisiiiauk6paiiiiaasaaasm",
"SaiiuAzuiii9iiiaiiiiiiiiiip6z0aiiaiiiiiqaidFaiiiiiiaaiiiiixV6uidm",
"naisihdiaiiiaiiapjjiaaiiiiadz2iiiiiaiiipiiakafiiiiiaiaiiiidl>iidm",
"Saiiiiiiiiiiiiafpzxiaiiiqua0l6paiiiiaiaiiiiiiaiiqqiiiiiiiaiuiiidm",
"Siiiiiiiiaaaiiiiiiaiiiaaiaaaiaiiiiiaiiiiaiiiiiiiiiiiiaiaifiiiiidm",
"Saiiiiiiiiiiiiiifipiaiiiiiafifaiaiaaiiiiaiiiiiiiiiiaiiaiaiiiiiism",
"Daifaaiiaffiiaaffsfaffiaifaafifiafaaaaffaaaaffifiaaaaaiaiaffffidm",
"SpuZmh0kx0sApipuzjhzsZpipuzkwhzppibs0ipedZpuiuxh0jmzupupAduuhmzsm",
"njjmNxhcSjlmkjkjSAxSlDjjkhSAhxmjjjmzjjkh6mjjjkmxhxNDjkjjDzkjxNSlF",
"MNNmMMNMmMNFNMmMMFMMNMNMMMFNNNMMNNmMNmMNMFNMNFFNNMmmMMNNmNMNMMFNM",
"&*8m;*=$,v*8*mB:******=mNBg&***tm=*=*4C1***9mB:7=%<crm=*=$x1%*8rM",
".#+1=X+X-,+++<6*X#+X@+#1448X##X$1+++X;c;X++#14*X#X-,$1#++X>;X+X$1",
"O#7X@77@++7#++++##7777#+X+77####+#777+X+7777+X#77##X#+##7@++###+ ",
"O########7###77########777######7#####77####77#####7#7####7####+o"
};
